<svg xmlns="http://www.w3.org/2000/svg" xmlns:xlink="http://www.w3.org/1999/xlink" width="500" zoomAndPan="magnify" viewBox="0 0 375 124.499996" height="166" preserveAspectRatio="xMidYMid meet" version="1.0"><defs><g/><clipPath id="0231103a23"><path d="M 0.765625 28.335938 L 113.546875 28.335938 L 113.546875 98.347656 L 0.765625 98.347656 Z M 0.765625 28.335938 " clip-rule="nonzero"/></clipPath></defs><g clip-path="url(#0231103a23)"><path fill="#070707" d="M 1.007812 96.027344 L 26.53125 57.46875 C 27.085938 56.632812 28.308594 56.609375 28.933594 57.417969 L 33.214844 62.933594 C 33.515625 63.320312 34.09375 63.316406 34.367188 62.925781 L 57.984375 28.949219 C 58.5625 28.121094 59.800781 28.132812 60.40625 28.976562 L 77.859375 53.347656 C 78.164062 53.773438 78.800781 53.753906 79.058594 53.308594 L 82.796875 46.78125 C 83.359375 45.800781 84.792969 45.828125 85.367188 46.832031 L 113.675781 96.15625 C 114.242188 97.140625 113.558594 98.347656 112.433594 98.347656 L 2.289062 98.347656 C 1.097656 98.347656 0.359375 97.007812 1.007812 96.027344 " fill-opacity="1" fill-rule="nonzero"/></g><g fill="#070707" fill-opacity="1"><g transform="translate(136.789041, 63.931033)"><g><path d="M 46.5625 -30.6875 L 43.6875 -30.328125 L 36.609375 0 L 30.125 0 L 23.71875 -23.046875 L 23.578125 -23.046875 L 17.171875 0 L 10.671875 0 L 3.546875 -30.328125 L 0.703125 -30.6875 L 0.703125 -34.90625 L 13.546875 -34.90625 L 13.546875 -30.6875 L 10.359375 -30.140625 L 14.359375 -11 L 14.5 -10.984375 L 21.046875 -34.90625 L 26.203125 -34.90625 L 32.796875 -10.984375 L 32.953125 -11 L 36.921875 -30.140625 L 33.734375 -30.6875 L 33.734375 -34.90625 L 46.5625 -34.90625 Z M 46.5625 -30.6875 "/></g></g></g><g fill="#070707" fill-opacity="1"><g transform="translate(184.073507, 63.931033)"><g><path d="M 1.34375 -30.6875 L 1.34375 -34.90625 L 15.796875 -34.90625 L 15.796875 -30.6875 L 12.0625 -29.96875 L 12.0625 -19.90625 L 26.3125 -19.90625 L 26.3125 -29.96875 L 22.5625 -30.6875 L 22.5625 -34.90625 L 37.03125 -34.90625 L 37.03125 -30.6875 L 33.28125 -29.96875 L 33.28125 -4.921875 L 37.03125 -4.203125 L 37.03125 0 L 22.5625 0 L 22.5625 -4.203125 L 26.3125 -4.921875 L 26.3125 -14.5 L 12.0625 -14.5 L 12.0625 -4.921875 L 15.796875 -4.203125 L 15.796875 0 L 1.34375 0 L 1.34375 -4.203125 L 5.0625 -4.921875 L 5.0625 -29.96875 Z M 1.34375 -30.6875 "/></g></g></g><g fill="#070707" fill-opacity="1"><g transform="translate(222.46217, 63.931033)"><g><path d="M 14.078125 -30.6875 L 11.21875 -30.28125 L 16.640625 -18.828125 L 16.78125 -18.828125 L 22.203125 -30.28125 L 19.375 -30.6875 L 19.375 -34.90625 L 32.59375 -34.90625 L 32.59375 -30.6875 L 29.609375 -30.21875 L 20.125 -12.28125 L 20.125 -4.921875 L 23.859375 -4.203125 L 23.859375 0 L 9.40625 0 L 9.40625 -4.203125 L 13.140625 -4.921875 L 13.140625 -12.640625 L 3.8125 -30.21875 L 0.859375 -30.6875 L 0.859375 -34.90625 L 14.078125 -34.90625 Z M 14.078125 -30.6875 "/></g></g></g><g fill="#070707" fill-opacity="1"><g transform="translate(255.983307, 63.931033)"><g/></g></g><g fill="#070707" fill-opacity="1"><g transform="translate(268.020225, 63.931033)"><g><path d="M 37.03125 -34.90625 L 37.03125 -30.6875 L 33.28125 -29.96875 L 33.28125 0 L 26.3125 0 L 12.203125 -23.5 L 12.0625 -23.46875 L 12.0625 -4.921875 L 15.796875 -4.203125 L 15.796875 0 L 1.34375 0 L 1.34375 -4.203125 L 5.0625 -4.921875 L 5.0625 -29.96875 L 1.34375 -30.6875 L 1.34375 -34.90625 L 12.0625 -34.90625 L 26.15625 -11.421875 L 26.3125 -11.4375 L 26.3125 -29.96875 L 22.5625 -30.6875 L 22.5625 -34.90625 Z M 37.03125 -34.90625 "/></g></g></g><g fill="#070707" fill-opacity="1"><g transform="translate(305.953299, 63.931033)"><g><path d="M 33.265625 -17.1875 C 33.265625 -12.070312 31.800781 -7.84375 28.875 -4.5 C 25.945312 -1.164062 22.117188 0.5 17.390625 0.5 C 12.671875 0.5 8.859375 -1.164062 5.953125 -4.5 C 3.054688 -7.84375 1.609375 -12.070312 1.609375 -17.1875 L 1.609375 -17.71875 C 1.609375 -22.800781 3.050781 -27.019531 5.9375 -30.375 C 8.832031 -33.738281 12.640625 -35.421875 17.359375 -35.421875 C 22.085938 -35.421875 25.921875 -33.738281 28.859375 -30.375 C 31.796875 -27.019531 33.265625 -22.800781 33.265625 -17.71875 Z M 26.28125 -17.765625 C 26.28125 -21.378906 25.523438 -24.3125 24.015625 -26.5625 C 22.515625 -28.820312 20.296875 -29.953125 17.359375 -29.953125 C 14.421875 -29.953125 12.226562 -28.832031 10.78125 -26.59375 C 9.332031 -24.351562 8.609375 -21.410156 8.609375 -17.765625 L 8.609375 -17.1875 C 8.609375 -13.507812 9.335938 -10.546875 10.796875 -8.296875 C 12.265625 -6.054688 14.460938 -4.9375 17.390625 -4.9375 C 20.347656 -4.9375 22.566406 -6.054688 24.046875 -8.296875 C 25.535156 -10.546875 26.28125 -13.507812 26.28125 -17.1875 Z M 26.28125 -17.765625 "/></g></g></g><g fill="#070707" fill-opacity="1"><g transform="translate(340.673332, 63.931033)"><g><path d="M 32.078125 -34.90625 L 32.078125 -25.609375 L 26.71875 -25.609375 L 26.421875 -29.515625 L 20 -29.515625 L 20 -4.921875 L 23.734375 -4.203125 L 23.734375 0 L 9.25 0 L 9.25 -4.203125 L 13 -4.921875 L 13 -29.515625 L 6.59375 -29.515625 L 6.3125 -25.609375 L 0.953125 -25.609375 L 0.953125 -34.90625 Z M 32.078125 -34.90625 "/></g></g></g><g fill="#070707" fill-opacity="1"><g transform="translate(141.570826, 95.640401)"><g><path d="M 0.890625 -2.046875 L 2.640625 -2.28125 L 10.90625 -23.609375 L 13.640625 -23.609375 L 21.75 -2.28125 L 23.484375 -2.046875 L 23.484375 0 L 16.703125 0 L 16.703125 -2.046875 L 18.484375 -2.359375 L 16.9375 -6.703125 L 7.484375 -6.703125 L 5.875 -2.359375 L 7.65625 -2.046875 L 7.65625 0 L 0.890625 0 Z M 8.46875 -9.375 L 15.953125 -9.375 L 12.296875 -19.515625 L 12.203125 -19.515625 Z M 8.46875 -9.375 "/></g></g></g><g fill="#070707" fill-opacity="1"><g transform="translate(165.896964, 95.640401)"><g><path d="M 11.046875 -23.609375 C 14.128906 -23.609375 16.609375 -22.660156 18.484375 -20.765625 C 20.359375 -18.867188 21.296875 -16.414062 21.296875 -13.40625 L 21.296875 -10.1875 C 21.296875 -7.164062 20.359375 -4.710938 18.484375 -2.828125 C 16.609375 -0.941406 14.128906 0 11.046875 0 L 1.15625 0 L 1.15625 -2.046875 L 3.796875 -2.5 L 3.796875 -21.109375 L 1.15625 -21.5625 L 1.15625 -23.609375 Z M 6.984375 -21.109375 L 6.984375 -2.5 L 11.046875 -2.5 C 13.234375 -2.5 14.957031 -3.21875 16.21875 -4.65625 C 17.476562 -6.09375 18.109375 -7.9375 18.109375 -10.1875 L 18.109375 -13.453125 C 18.109375 -15.671875 17.476562 -17.5 16.21875 -18.9375 C 14.957031 -20.382812 13.234375 -21.109375 11.046875 -21.109375 Z M 6.984375 -21.109375 "/></g></g></g><g fill="#070707" fill-opacity="1"><g transform="translate(188.909499, 95.640401)"><g><path d="M 8.21875 -21.5625 L 6.0625 -21.21875 L 11.359375 -5.875 L 11.890625 -4 L 11.984375 -4 L 12.515625 -5.875 L 17.796875 -21.234375 L 15.671875 -21.5625 L 15.671875 -23.609375 L 23.109375 -23.609375 L 23.109375 -21.5625 L 21.21875 -21.296875 L 13.296875 0 L 10.5625 0 L 2.640625 -21.296875 L 0.765625 -21.5625 L 0.765625 -23.609375 L 8.21875 -23.609375 Z M 8.21875 -21.5625 "/></g></g></g><g fill="#070707" fill-opacity="1"><g transform="translate(212.749114, 95.640401)"><g><path d="M 1.15625 0 L 1.15625 -2.046875 L 3.796875 -2.5 L 3.796875 -21.109375 L 1.15625 -21.5625 L 1.15625 -23.609375 L 19.28125 -23.609375 L 19.28125 -17.9375 L 16.546875 -17.9375 L 16.28125 -21.109375 L 6.984375 -21.109375 L 6.984375 -13.46875 L 16.03125 -13.46875 L 16.03125 -10.953125 L 6.984375 -10.953125 L 6.984375 -2.5 L 16.484375 -2.5 L 16.734375 -5.65625 L 19.46875 -5.65625 L 19.46875 0 Z M 1.15625 0 "/></g></g></g><g fill="#070707" fill-opacity="1"><g transform="translate(233.929071, 95.640401)"><g><path d="M 24.28125 -23.609375 L 24.28125 -21.5625 L 21.640625 -21.109375 L 21.640625 0 L 18.4375 0 L 7.09375 -18.234375 L 6.984375 -18.203125 L 6.984375 -2.5 L 9.640625 -2.046875 L 9.640625 0 L 1.15625 0 L 1.15625 -2.046875 L 3.796875 -2.5 L 3.796875 -21.109375 L 1.15625 -21.5625 L 1.15625 -23.609375 L 6.984375 -23.609375 L 18.34375 -5.40625 L 18.4375 -5.4375 L 18.4375 -21.109375 L 15.796875 -21.5625 L 15.796875 -23.609375 Z M 24.28125 -23.609375 "/></g></g></g><g fill="#070707" fill-opacity="1"><g transform="translate(259.228255, 95.640401)"><g><path d="M 20.21875 -23.609375 L 20.21875 -18.390625 L 17.5 -18.390625 L 17.265625 -21.109375 L 12.015625 -21.109375 L 12.015625 -2.5 L 14.65625 -2.046875 L 14.65625 0 L 6.1875 0 L 6.1875 -2.046875 L 8.828125 -2.5 L 8.828125 -21.109375 L 3.5625 -21.109375 L 3.34375 -18.390625 L 0.59375 -18.390625 L 0.59375 -23.609375 Z M 20.21875 -23.609375 "/></g></g></g><g fill="#070707" fill-opacity="1"><g transform="translate(280.051428, 95.640401)"><g><path d="M 9.453125 -23.609375 L 9.453125 -21.5625 L 6.8125 -21.109375 L 6.8125 -7.609375 C 6.8125 -5.828125 7.316406 -4.472656 8.328125 -3.546875 C 9.347656 -2.617188 10.691406 -2.15625 12.359375 -2.15625 C 14.109375 -2.15625 15.519531 -2.613281 16.59375 -3.53125 C 17.664062 -4.457031 18.203125 -5.816406 18.203125 -7.609375 L 18.203125 -21.109375 L 15.5625 -21.5625 L 15.5625 -23.609375 L 24.03125 -23.609375 L 24.03125 -21.5625 L 21.390625 -21.109375 L 21.390625 -7.609375 C 21.390625 -5.046875 20.550781 -3.078125 18.875 -1.703125 C 17.207031 -0.335938 15.035156 0.34375 12.359375 0.34375 C 9.753906 0.34375 7.644531 -0.335938 6.03125 -1.703125 C 4.414062 -3.078125 3.609375 -5.046875 3.609375 -7.609375 L 3.609375 -21.109375 L 0.96875 -21.5625 L 0.96875 -23.609375 Z M 9.453125 -23.609375 "/></g></g></g><g fill="#070707" fill-opacity="1"><g transform="translate(305.042489, 95.640401)"><g><path d="M 11.515625 -23.59375 C 14.085938 -23.59375 16.0625 -23.019531 17.4375 -21.875 C 18.8125 -20.738281 19.5 -19.125 19.5 -17.03125 C 19.5 -15.882812 19.175781 -14.867188 18.53125 -13.984375 C 17.894531 -13.097656 16.984375 -12.398438 15.796875 -11.890625 C 17.085938 -11.460938 18.015625 -10.773438 18.578125 -9.828125 C 19.148438 -8.878906 19.4375 -7.707031 19.4375 -6.3125 L 19.4375 -4.40625 C 19.4375 -3.6875 19.523438 -3.148438 19.703125 -2.796875 C 19.890625 -2.453125 20.191406 -2.25 20.609375 -2.1875 L 21.390625 -2.09375 L 21.390625 0 L 19.671875 0 C 18.429688 0 17.546875 -0.429688 17.015625 -1.296875 C 16.492188 -2.160156 16.234375 -3.207031 16.234375 -4.4375 L 16.234375 -6.28125 C 16.234375 -7.5625 15.859375 -8.59375 15.109375 -9.375 C 14.367188 -10.15625 13.367188 -10.546875 12.109375 -10.546875 L 6.984375 -10.546875 L 6.984375 -2.5 L 9.640625 -2.046875 L 9.640625 0 L 1.15625 0 L 1.15625 -2.046875 L 3.796875 -2.5 L 3.796875 -21.109375 L 1.15625 -21.5625 L 1.15625 -23.59375 Z M 6.984375 -13.0625 L 11.1875 -13.0625 C 12.976562 -13.0625 14.273438 -13.398438 15.078125 -14.078125 C 15.890625 -14.753906 16.296875 -15.75 16.296875 -17.0625 C 16.296875 -18.300781 15.90625 -19.285156 15.125 -20.015625 C 14.351562 -20.742188 13.148438 -21.109375 11.515625 -21.109375 L 6.984375 -21.109375 Z M 6.984375 -13.0625 "/></g></g></g><g fill="#070707" fill-opacity="1"><g transform="translate(327.519841, 95.640401)"><g><path d="M 1.15625 0 L 1.15625 -2.046875 L 3.796875 -2.5 L 3.796875 -21.109375 L 1.15625 -21.5625 L 1.15625 -23.609375 L 19.28125 -23.609375 L 19.28125 -17.9375 L 16.546875 -17.9375 L 16.28125 -21.109375 L 6.984375 -21.109375 L 6.984375 -13.46875 L 16.03125 -13.46875 L 16.03125 -10.953125 L 6.984375 -10.953125 L 6.984375 -2.5 L 16.484375 -2.5 L 16.734375 -5.65625 L 19.46875 -5.65625 L 19.46875 0 Z M 1.15625 0 "/></g></g></g><g fill="#070707" fill-opacity="1"><g transform="translate(348.699798, 95.640401)"><g><path d="M 18.25 -16.640625 L 15.828125 -16.640625 L 15.234375 -20.015625 C 14.742188 -20.421875 14.09375 -20.757812 13.28125 -21.03125 C 12.46875 -21.300781 11.53125 -21.4375 10.46875 -21.4375 C 8.769531 -21.4375 7.460938 -21.078125 6.546875 -20.359375 C 5.640625 -19.640625 5.1875 -18.703125 5.1875 -17.546875 C 5.1875 -16.523438 5.648438 -15.671875 6.578125 -14.984375 C 7.503906 -14.296875 9 -13.691406 11.0625 -13.171875 C 13.550781 -12.554688 15.441406 -11.644531 16.734375 -10.4375 C 18.023438 -9.238281 18.671875 -7.753906 18.671875 -5.984375 C 18.671875 -4.078125 17.894531 -2.546875 16.34375 -1.390625 C 14.789062 -0.234375 12.757812 0.34375 10.25 0.34375 C 8.4375 0.34375 6.820312 0.046875 5.40625 -0.546875 C 4 -1.140625 2.851562 -1.921875 1.96875 -2.890625 L 1.96875 -7.28125 L 4.359375 -7.28125 L 4.984375 -3.890625 C 5.597656 -3.378906 6.332031 -2.960938 7.1875 -2.640625 C 8.039062 -2.316406 9.0625 -2.15625 10.25 -2.15625 C 11.863281 -2.15625 13.132812 -2.492188 14.0625 -3.171875 C 15 -3.859375 15.46875 -4.785156 15.46875 -5.953125 C 15.46875 -7.035156 15.0625 -7.941406 14.25 -8.671875 C 13.445312 -9.398438 12.015625 -10.015625 9.953125 -10.515625 C 7.460938 -11.109375 5.515625 -11.984375 4.109375 -13.140625 C 2.703125 -14.296875 2 -15.75 2 -17.5 C 2 -19.351562 2.78125 -20.890625 4.34375 -22.109375 C 5.914062 -23.335938 7.957031 -23.953125 10.46875 -23.953125 C 12.113281 -23.953125 13.613281 -23.664062 14.96875 -23.09375 C 16.332031 -22.53125 17.425781 -21.84375 18.25 -21.03125 Z M 18.25 -16.640625 "/></g></g></g></svg>