<svg xmlns="http://www.w3.org/2000/svg" xmlns:xlink="http://www.w3.org/1999/xlink" width="500" zoomAndPan="magnify" viewBox="0 0 375 374.999991" height="500" preserveAspectRatio="xMidYMid meet" version="1.0"><defs><g/></defs><rect x="-37.5" width="450" fill="#ffffff" y="-37.499999" height="449.999989" fill-opacity="1"/><rect x="-37.5" width="450" fill="#f2f3f4" y="-37.499999" height="449.999989" fill-opacity="1"/><g fill="#070707" fill-opacity="1"><g transform="translate(37.521441, 187.690594)"><g><path d="M 58.96875 -38.875 L 55.328125 -38.40625 L 46.375 0 L 38.140625 0 L 30.03125 -29.1875 L 29.84375 -29.1875 L 21.734375 0 L 13.515625 0 L 4.5 -38.40625 L 0.875 -38.875 L 0.875 -44.21875 L 17.15625 -44.21875 L 17.15625 -38.875 L 13.125 -38.171875 L 18.1875 -13.9375 L 18.375 -13.90625 L 26.65625 -44.21875 L 33.1875 -44.21875 L 41.546875 -13.90625 L 41.71875 -13.9375 L 46.765625 -38.171875 L 42.71875 -38.875 L 42.71875 -44.21875 L 58.96875 -44.21875 Z M 58.96875 -38.875 "/></g></g></g><g fill="#070707" fill-opacity="1"><g transform="translate(97.388142, 187.690594)"><g><path d="M 1.703125 -38.875 L 1.703125 -44.21875 L 20.015625 -44.21875 L 20.015625 -38.875 L 15.28125 -37.953125 L 15.28125 -25.203125 L 33.3125 -25.203125 L 33.3125 -37.953125 L 28.578125 -38.875 L 28.578125 -44.21875 L 46.890625 -44.21875 L 46.890625 -38.875 L 42.140625 -37.953125 L 42.140625 -6.21875 L 46.890625 -5.3125 L 46.890625 0 L 28.578125 0 L 28.578125 -5.3125 L 33.3125 -6.21875 L 33.3125 -18.375 L 15.28125 -18.375 L 15.28125 -6.21875 L 20.015625 -5.3125 L 20.015625 0 L 1.703125 0 L 1.703125 -5.3125 L 6.40625 -6.21875 L 6.40625 -37.953125 Z M 1.703125 -38.875 "/></g></g></g><g fill="#070707" fill-opacity="1"><g transform="translate(145.991888, 187.690594)"><g><path d="M 17.828125 -38.875 L 14.203125 -38.34375 L 21.078125 -23.84375 L 21.25 -23.84375 L 28.125 -38.34375 L 24.53125 -38.875 L 24.53125 -44.21875 L 41.265625 -44.21875 L 41.265625 -38.875 L 37.5 -38.265625 L 25.46875 -15.546875 L 25.46875 -6.21875 L 30.21875 -5.3125 L 30.21875 0 L 11.90625 0 L 11.90625 -5.3125 L 16.640625 -6.21875 L 16.640625 -16 L 4.828125 -38.265625 L 1.09375 -38.875 L 1.09375 -44.21875 L 17.828125 -44.21875 Z M 17.828125 -38.875 "/></g></g></g><g fill="#070707" fill-opacity="1"><g transform="translate(188.432886, 187.690594)"><g/></g></g><g fill="#070707" fill-opacity="1"><g transform="translate(203.672787, 187.690594)"><g><path d="M 46.890625 -44.21875 L 46.890625 -38.875 L 42.140625 -37.953125 L 42.140625 0 L 33.3125 0 L 15.453125 -29.75 L 15.28125 -29.734375 L 15.28125 -6.21875 L 20.015625 -5.3125 L 20.015625 0 L 1.703125 0 L 1.703125 -5.3125 L 6.40625 -6.21875 L 6.40625 -37.953125 L 1.703125 -38.875 L 1.703125 -44.21875 L 15.28125 -44.21875 L 33.125 -14.453125 L 33.3125 -14.484375 L 33.3125 -37.953125 L 28.578125 -38.875 L 28.578125 -44.21875 Z M 46.890625 -44.21875 "/></g></g></g><g fill="#070707" fill-opacity="1"><g transform="translate(251.699724, 187.690594)"><g><path d="M 42.109375 -21.765625 C 42.109375 -15.296875 40.253906 -9.941406 36.546875 -5.703125 C 32.847656 -1.472656 28.003906 0.640625 22.015625 0.640625 C 16.046875 0.640625 11.222656 -1.472656 7.546875 -5.703125 C 3.867188 -9.941406 2.03125 -15.296875 2.03125 -21.765625 L 2.03125 -22.4375 C 2.03125 -28.875 3.863281 -34.21875 7.53125 -38.46875 C 11.195312 -42.71875 16.015625 -44.84375 21.984375 -44.84375 C 27.972656 -44.84375 32.820312 -42.71875 36.53125 -38.46875 C 40.25 -34.21875 42.109375 -28.875 42.109375 -22.4375 Z M 33.28125 -22.5 C 33.28125 -27.070312 32.328125 -30.785156 30.421875 -33.640625 C 28.523438 -36.492188 25.710938 -37.921875 21.984375 -37.921875 C 18.253906 -37.921875 15.472656 -36.503906 13.640625 -33.671875 C 11.816406 -30.835938 10.90625 -27.113281 10.90625 -22.5 L 10.90625 -21.765625 C 10.90625 -17.109375 11.828125 -13.359375 13.671875 -10.515625 C 15.523438 -7.671875 18.304688 -6.25 22.015625 -6.25 C 25.753906 -6.25 28.566406 -7.671875 30.453125 -10.515625 C 32.335938 -13.359375 33.28125 -17.109375 33.28125 -21.765625 Z M 33.28125 -22.5 "/></g></g></g><g fill="#070707" fill-opacity="1"><g transform="translate(295.658641, 187.690594)"><g><path d="M 40.625 -44.21875 L 40.625 -32.4375 L 33.828125 -32.4375 L 33.46875 -37.375 L 25.328125 -37.375 L 25.328125 -6.21875 L 30.0625 -5.3125 L 30.0625 0 L 11.71875 0 L 11.71875 -5.3125 L 16.453125 -6.21875 L 16.453125 -37.375 L 8.34375 -37.375 L 7.984375 -32.4375 L 1.21875 -32.4375 L 1.21875 -44.21875 Z M 40.625 -44.21875 "/></g></g></g><g fill="#070707" fill-opacity="1"><g transform="translate(38.614845, 237.581489)"><g><path d="M 1.171875 -2.671875 L 3.46875 -3 L 14.28125 -30.9375 L 17.875 -30.9375 L 28.5 -3 L 30.765625 -2.671875 L 30.765625 0 L 21.890625 0 L 21.890625 -2.671875 L 24.21875 -3.078125 L 22.1875 -8.78125 L 9.796875 -8.78125 L 7.6875 -3.078125 L 10.03125 -2.671875 L 10.03125 0 L 1.171875 0 Z M 11.09375 -12.28125 L 20.90625 -12.28125 L 16.109375 -25.5625 L 15.984375 -25.5625 Z M 11.09375 -12.28125 "/></g></g></g><g fill="#070707" fill-opacity="1"><g transform="translate(70.475428, 237.581489)"><g><path d="M 14.46875 -30.9375 C 18.507812 -30.9375 21.757812 -29.691406 24.21875 -27.203125 C 26.675781 -24.722656 27.90625 -21.515625 27.90625 -17.578125 L 27.90625 -13.34375 C 27.90625 -9.394531 26.675781 -6.179688 24.21875 -3.703125 C 21.757812 -1.234375 18.507812 0 14.46875 0 L 1.515625 0 L 1.515625 -2.671875 L 4.96875 -3.265625 L 4.96875 -27.640625 L 1.515625 -28.234375 L 1.515625 -30.9375 Z M 9.15625 -27.640625 L 9.15625 -3.265625 L 14.46875 -3.265625 C 17.332031 -3.265625 19.585938 -4.207031 21.234375 -6.09375 C 22.890625 -7.976562 23.71875 -10.394531 23.71875 -13.34375 L 23.71875 -17.609375 C 23.71875 -20.523438 22.890625 -22.925781 21.234375 -24.8125 C 19.585938 -26.695312 17.332031 -27.640625 14.46875 -27.640625 Z M 9.15625 -27.640625 "/></g></g></g><g fill="#070707" fill-opacity="1"><g transform="translate(100.615551, 237.581489)"><g><path d="M 10.765625 -28.234375 L 7.953125 -27.796875 L 14.875 -7.6875 L 15.578125 -5.25 L 15.703125 -5.25 L 16.40625 -7.6875 L 23.3125 -27.8125 L 20.53125 -28.234375 L 20.53125 -30.9375 L 30.28125 -30.9375 L 30.28125 -28.234375 L 27.796875 -27.90625 L 17.421875 0 L 13.828125 0 L 3.46875 -27.90625 L 1 -28.234375 L 1 -30.9375 L 10.765625 -30.9375 Z M 10.765625 -28.234375 "/></g></g></g><g fill="#070707" fill-opacity="1"><g transform="translate(131.838923, 237.581489)"><g><path d="M 1.515625 0 L 1.515625 -2.671875 L 4.96875 -3.265625 L 4.96875 -27.640625 L 1.515625 -28.234375 L 1.515625 -30.9375 L 25.265625 -30.9375 L 25.265625 -23.5 L 21.671875 -23.5 L 21.328125 -27.640625 L 9.15625 -27.640625 L 9.15625 -17.640625 L 21 -17.640625 L 21 -14.34375 L 9.15625 -14.34375 L 9.15625 -3.265625 L 21.59375 -3.265625 L 21.921875 -7.421875 L 25.5 -7.421875 L 25.5 0 Z M 1.515625 0 "/></g></g></g><g fill="#070707" fill-opacity="1"><g transform="translate(159.578871, 237.581489)"><g><path d="M 31.8125 -30.9375 L 31.8125 -28.234375 L 28.34375 -27.640625 L 28.34375 0 L 24.15625 0 L 9.28125 -23.875 L 9.15625 -23.84375 L 9.15625 -3.265625 L 12.625 -2.671875 L 12.625 0 L 1.515625 0 L 1.515625 -2.671875 L 4.96875 -3.265625 L 4.96875 -27.640625 L 1.515625 -28.234375 L 1.515625 -30.9375 L 9.15625 -30.9375 L 24.03125 -7.078125 L 24.15625 -7.125 L 24.15625 -27.640625 L 20.703125 -28.234375 L 20.703125 -30.9375 Z M 31.8125 -30.9375 "/></g></g></g><g fill="#070707" fill-opacity="1"><g transform="translate(192.713878, 237.581489)"><g><path d="M 26.5 -30.9375 L 26.5 -24.09375 L 22.921875 -24.09375 L 22.609375 -27.640625 L 15.75 -27.640625 L 15.75 -3.265625 L 19.203125 -2.671875 L 19.203125 0 L 8.09375 0 L 8.09375 -2.671875 L 11.5625 -3.265625 L 11.5625 -27.640625 L 4.671875 -27.640625 L 4.375 -24.09375 L 0.78125 -24.09375 L 0.78125 -30.9375 Z M 26.5 -30.9375 "/></g></g></g><g fill="#070707" fill-opacity="1"><g transform="translate(219.986537, 237.581489)"><g><path d="M 12.390625 -30.9375 L 12.390625 -28.234375 L 8.921875 -27.640625 L 8.921875 -9.96875 C 8.921875 -7.625 9.585938 -5.847656 10.921875 -4.640625 C 12.253906 -3.429688 14.007812 -2.828125 16.1875 -2.828125 C 18.488281 -2.828125 20.335938 -3.425781 21.734375 -4.625 C 23.140625 -5.832031 23.84375 -7.613281 23.84375 -9.96875 L 23.84375 -27.640625 L 20.375 -28.234375 L 20.375 -30.9375 L 31.484375 -30.9375 L 31.484375 -28.234375 L 28.03125 -27.640625 L 28.03125 -9.96875 C 28.03125 -6.601562 26.929688 -4.023438 24.734375 -2.234375 C 22.546875 -0.441406 19.695312 0.453125 16.1875 0.453125 C 12.769531 0.453125 10.003906 -0.441406 7.890625 -2.234375 C 5.785156 -4.023438 4.734375 -6.601562 4.734375 -9.96875 L 4.734375 -27.640625 L 1.28125 -28.234375 L 1.28125 -30.9375 Z M 12.390625 -30.9375 "/></g></g></g><g fill="#070707" fill-opacity="1"><g transform="translate(252.717987, 237.581489)"><g><path d="M 15.09375 -30.921875 C 18.457031 -30.921875 21.039062 -30.171875 22.84375 -28.671875 C 24.644531 -27.179688 25.546875 -25.0625 25.546875 -22.3125 C 25.546875 -20.8125 25.125 -19.476562 24.28125 -18.3125 C 23.445312 -17.15625 22.253906 -16.242188 20.703125 -15.578125 C 22.378906 -15.023438 23.585938 -14.125 24.328125 -12.875 C 25.078125 -11.625 25.453125 -10.085938 25.453125 -8.265625 L 25.453125 -5.78125 C 25.453125 -4.832031 25.570312 -4.128906 25.8125 -3.671875 C 26.050781 -3.222656 26.445312 -2.957031 27 -2.875 L 28.03125 -2.734375 L 28.03125 0 L 25.78125 0 C 24.144531 0 22.984375 -0.566406 22.296875 -1.703125 C 21.609375 -2.835938 21.265625 -4.210938 21.265625 -5.828125 L 21.265625 -8.21875 C 21.265625 -9.90625 20.773438 -11.257812 19.796875 -12.28125 C 18.828125 -13.300781 17.519531 -13.8125 15.875 -13.8125 L 9.15625 -13.8125 L 9.15625 -3.265625 L 12.625 -2.671875 L 12.625 0 L 1.515625 0 L 1.515625 -2.671875 L 4.96875 -3.265625 L 4.96875 -27.640625 L 1.515625 -28.234375 L 1.515625 -30.921875 Z M 9.15625 -17.109375 L 14.65625 -17.109375 C 17 -17.109375 18.703125 -17.550781 19.765625 -18.4375 C 20.828125 -19.332031 21.359375 -20.640625 21.359375 -22.359375 C 21.359375 -23.984375 20.847656 -25.269531 19.828125 -26.21875 C 18.804688 -27.164062 17.226562 -27.640625 15.09375 -27.640625 L 9.15625 -27.640625 Z M 9.15625 -17.109375 "/></g></g></g><g fill="#070707" fill-opacity="1"><g transform="translate(282.157167, 237.581489)"><g><path d="M 1.515625 0 L 1.515625 -2.671875 L 4.96875 -3.265625 L 4.96875 -27.640625 L 1.515625 -28.234375 L 1.515625 -30.9375 L 25.265625 -30.9375 L 25.265625 -23.5 L 21.671875 -23.5 L 21.328125 -27.640625 L 9.15625 -27.640625 L 9.15625 -17.640625 L 21 -17.640625 L 21 -14.34375 L 9.15625 -14.34375 L 9.15625 -3.265625 L 21.59375 -3.265625 L 21.921875 -7.421875 L 25.5 -7.421875 L 25.5 0 Z M 1.515625 0 "/></g></g></g><g fill="#070707" fill-opacity="1"><g transform="translate(309.897114, 237.581489)"><g><path d="M 23.90625 -21.796875 L 20.734375 -21.796875 L 19.953125 -26.21875 C 19.316406 -26.757812 18.46875 -27.207031 17.40625 -27.5625 C 16.34375 -27.914062 15.109375 -28.09375 13.703125 -28.09375 C 11.484375 -28.09375 9.773438 -27.617188 8.578125 -26.671875 C 7.390625 -25.734375 6.796875 -24.503906 6.796875 -22.984375 C 6.796875 -21.640625 7.398438 -20.515625 8.609375 -19.609375 C 9.828125 -18.710938 11.785156 -17.925781 14.484375 -17.25 C 17.742188 -16.445312 20.21875 -15.257812 21.90625 -13.6875 C 23.601562 -12.113281 24.453125 -10.164062 24.453125 -7.84375 C 24.453125 -5.34375 23.4375 -3.332031 21.40625 -1.8125 C 19.375 -0.300781 16.710938 0.453125 13.421875 0.453125 C 11.046875 0.453125 8.929688 0.0625 7.078125 -0.71875 C 5.234375 -1.5 3.734375 -2.519531 2.578125 -3.78125 L 2.578125 -9.546875 L 5.71875 -9.546875 L 6.515625 -5.09375 C 7.328125 -4.425781 8.289062 -3.878906 9.40625 -3.453125 C 10.53125 -3.035156 11.867188 -2.828125 13.421875 -2.828125 C 15.535156 -2.828125 17.203125 -3.269531 18.421875 -4.15625 C 19.648438 -5.050781 20.265625 -6.265625 20.265625 -7.796875 C 20.265625 -9.210938 19.734375 -10.398438 18.671875 -11.359375 C 17.609375 -12.316406 15.734375 -13.117188 13.046875 -13.765625 C 9.773438 -14.546875 7.21875 -15.691406 5.375 -17.203125 C 3.53125 -18.722656 2.609375 -20.628906 2.609375 -22.921875 C 2.609375 -25.347656 3.632812 -27.363281 5.6875 -28.96875 C 7.75 -30.582031 10.421875 -31.390625 13.703125 -31.390625 C 15.867188 -31.390625 17.835938 -31.015625 19.609375 -30.265625 C 21.390625 -29.523438 22.820312 -28.625 23.90625 -27.5625 Z M 23.90625 -21.796875 "/></g></g></g></svg>