<svg xmlns="http://www.w3.org/2000/svg" xmlns:xlink="http://www.w3.org/1999/xlink" width="500" zoomAndPan="magnify" viewBox="0 0 375 124.499996" height="166" preserveAspectRatio="xMidYMid meet" version="1.0"><defs><g/><clipPath id="2b78e4ee08"><path d="M 0.75 0 L 374.25 0 L 374.25 124.003906 L 0.75 124.003906 Z M 0.75 0 " clip-rule="nonzero"/></clipPath><clipPath id="944cf4356f"><path d="M 24.433594 32.289062 L 123.019531 32.289062 L 123.019531 93.429688 L 24.433594 93.429688 Z M 24.433594 32.289062 " clip-rule="nonzero"/></clipPath></defs><g clip-path="url(#2b78e4ee08)"><path fill="#ffffff" d="M 0.75 0 L 374.25 0 L 374.25 124.003906 L 0.75 124.003906 Z M 0.75 0 " fill-opacity="1" fill-rule="nonzero"/><path fill="#f2f3f4" d="M 0.75 0 L 374.25 0 L 374.25 124.003906 L 0.75 124.003906 Z M 0.75 0 " fill-opacity="1" fill-rule="nonzero"/></g><g clip-path="url(#944cf4356f)"><path fill="#070707" d="M 24.644531 91.402344 L 46.933594 57.730469 C 47.414062 57 48.484375 56.980469 49.03125 57.6875 L 52.769531 62.503906 C 53.03125 62.839844 53.535156 62.835938 53.773438 62.496094 L 74.402344 32.824219 C 74.90625 32.101562 75.988281 32.113281 76.515625 32.847656 L 91.757812 54.128906 C 92.023438 54.503906 92.578125 54.484375 92.800781 54.097656 L 96.070312 48.398438 C 96.5625 47.539062 97.8125 47.5625 98.3125 48.441406 L 123.035156 91.515625 C 123.527344 92.375 122.933594 93.429688 121.949219 93.429688 L 25.761719 93.429688 C 24.71875 93.429688 24.074219 92.261719 24.644531 91.402344 " fill-opacity="1" fill-rule="nonzero"/></g><g fill="#070707" fill-opacity="1"><g transform="translate(143.215385, 63.373318)"><g><path d="M 40.671875 -26.8125 L 38.15625 -26.5 L 31.984375 0 L 26.296875 0 L 20.71875 -20.125 L 20.59375 -20.125 L 15 0 L 9.3125 0 L 3.09375 -26.5 L 0.609375 -26.8125 L 0.609375 -30.5 L 11.828125 -30.5 L 11.828125 -26.8125 L 9.046875 -26.328125 L 12.546875 -9.609375 L 12.671875 -9.59375 L 18.390625 -30.5 L 22.890625 -30.5 L 28.65625 -9.59375 L 28.78125 -9.609375 L 32.25 -26.328125 L 29.46875 -26.8125 L 29.46875 -30.5 L 40.671875 -30.5 Z M 40.671875 -26.8125 "/></g></g></g><g fill="#070707" fill-opacity="1"><g transform="translate(184.507729, 63.373318)"><g><path d="M 1.171875 -26.8125 L 1.171875 -30.5 L 13.796875 -30.5 L 13.796875 -26.8125 L 10.53125 -26.171875 L 10.53125 -17.375 L 22.96875 -17.375 L 22.96875 -26.171875 L 19.703125 -26.8125 L 19.703125 -30.5 L 32.328125 -30.5 L 32.328125 -26.8125 L 29.0625 -26.171875 L 29.0625 -4.296875 L 32.328125 -3.671875 L 32.328125 0 L 19.703125 0 L 19.703125 -3.671875 L 22.96875 -4.296875 L 22.96875 -12.671875 L 10.53125 -12.671875 L 10.53125 -4.296875 L 13.796875 -3.671875 L 13.796875 0 L 1.171875 0 L 1.171875 -3.671875 L 4.421875 -4.296875 L 4.421875 -26.171875 Z M 1.171875 -26.8125 "/></g></g></g><g fill="#070707" fill-opacity="1"><g transform="translate(218.03159, 63.373318)"><g><path d="M 12.296875 -26.8125 L 9.796875 -26.453125 L 14.53125 -16.4375 L 14.65625 -16.4375 L 19.390625 -26.453125 L 16.921875 -26.8125 L 16.921875 -30.5 L 28.46875 -30.5 L 28.46875 -26.8125 L 25.859375 -26.390625 L 17.578125 -10.71875 L 17.578125 -4.296875 L 20.84375 -3.671875 L 20.84375 0 L 8.203125 0 L 8.203125 -3.671875 L 11.484375 -4.296875 L 11.484375 -11.03125 L 3.328125 -26.390625 L 0.75 -26.8125 L 0.75 -30.5 L 12.296875 -30.5 Z M 12.296875 -26.8125 "/></g></g></g><g fill="#070707" fill-opacity="1"><g transform="translate(247.304762, 63.373318)"><g/></g></g><g fill="#070707" fill-opacity="1"><g transform="translate(257.816302, 63.373318)"><g><path d="M 32.328125 -30.5 L 32.328125 -26.8125 L 29.0625 -26.171875 L 29.0625 0 L 22.96875 0 L 10.65625 -20.53125 L 10.53125 -20.5 L 10.53125 -4.296875 L 13.796875 -3.671875 L 13.796875 0 L 1.171875 0 L 1.171875 -3.671875 L 4.421875 -4.296875 L 4.421875 -26.171875 L 1.171875 -26.8125 L 1.171875 -30.5 L 10.53125 -30.5 L 22.84375 -9.96875 L 22.96875 -9.984375 L 22.96875 -26.171875 L 19.703125 -26.8125 L 19.703125 -30.5 Z M 32.328125 -30.5 "/></g></g></g><g fill="#070707" fill-opacity="1"><g transform="translate(290.942309, 63.373318)"><g><path d="M 29.046875 -15.015625 C 29.046875 -10.546875 27.765625 -6.851562 25.203125 -3.9375 C 22.648438 -1.019531 19.3125 0.4375 15.1875 0.4375 C 11.0625 0.4375 7.734375 -1.019531 5.203125 -3.9375 C 2.671875 -6.851562 1.40625 -10.546875 1.40625 -15.015625 L 1.40625 -15.484375 C 1.40625 -19.921875 2.664062 -23.601562 5.1875 -26.53125 C 7.71875 -29.46875 11.039062 -30.9375 15.15625 -30.9375 C 19.289062 -30.9375 22.640625 -29.46875 25.203125 -26.53125 C 27.765625 -23.601562 29.046875 -19.921875 29.046875 -15.484375 Z M 22.953125 -15.515625 C 22.953125 -18.671875 22.296875 -21.234375 20.984375 -23.203125 C 19.671875 -25.171875 17.726562 -26.15625 15.15625 -26.15625 C 12.59375 -26.15625 10.675781 -25.175781 9.40625 -23.21875 C 8.144531 -21.269531 7.515625 -18.703125 7.515625 -15.515625 L 7.515625 -15.015625 C 7.515625 -11.804688 8.148438 -9.21875 9.421875 -7.25 C 10.703125 -5.289062 12.625 -4.3125 15.1875 -4.3125 C 17.769531 -4.3125 19.707031 -5.289062 21 -7.25 C 22.300781 -9.21875 22.953125 -11.804688 22.953125 -15.015625 Z M 22.953125 -15.515625 "/></g></g></g><g fill="#070707" fill-opacity="1"><g transform="translate(321.262447, 63.373318)"><g><path d="M 28.015625 -30.5 L 28.015625 -22.359375 L 23.328125 -22.359375 L 23.078125 -25.78125 L 17.46875 -25.78125 L 17.46875 -4.296875 L 20.734375 -3.671875 L 20.734375 0 L 8.078125 0 L 8.078125 -3.671875 L 11.34375 -4.296875 L 11.34375 -25.78125 L 5.765625 -25.78125 L 5.515625 -22.359375 L 0.84375 -22.359375 L 0.84375 -30.5 Z M 28.015625 -30.5 "/></g></g></g><g fill="#070707" fill-opacity="1"><g transform="translate(147.391198, 91.064317)"><g><path d="M 0.78125 -1.78125 L 2.3125 -2 L 9.515625 -20.625 L 11.921875 -20.625 L 19 -2 L 20.515625 -1.78125 L 20.515625 0 L 14.59375 0 L 14.59375 -1.78125 L 16.15625 -2.046875 L 14.796875 -5.84375 L 6.53125 -5.84375 L 5.125 -2.046875 L 6.6875 -1.78125 L 6.6875 0 L 0.78125 0 Z M 7.390625 -8.1875 L 13.9375 -8.1875 L 10.734375 -17.046875 L 10.65625 -17.046875 Z M 7.390625 -8.1875 "/></g></g></g><g fill="#070707" fill-opacity="1"><g transform="translate(168.634608, 91.064317)"><g><path d="M 9.640625 -20.625 C 12.335938 -20.625 14.503906 -19.796875 16.140625 -18.140625 C 17.785156 -16.484375 18.609375 -14.34375 18.609375 -11.71875 L 18.609375 -8.890625 C 18.609375 -6.253906 17.785156 -4.113281 16.140625 -2.46875 C 14.503906 -0.820312 12.335938 0 9.640625 0 L 1 0 L 1 -1.78125 L 3.3125 -2.1875 L 3.3125 -18.4375 L 1 -18.828125 L 1 -20.625 Z M 6.109375 -18.4375 L 6.109375 -2.1875 L 9.640625 -2.1875 C 11.554688 -2.1875 13.0625 -2.8125 14.15625 -4.0625 C 15.257812 -5.320312 15.8125 -6.929688 15.8125 -8.890625 L 15.8125 -11.75 C 15.8125 -13.6875 15.257812 -15.285156 14.15625 -16.546875 C 13.0625 -17.804688 11.554688 -18.4375 9.640625 -18.4375 Z M 6.109375 -18.4375 "/></g></g></g><g fill="#070707" fill-opacity="1"><g transform="translate(188.73088, 91.064317)"><g><path d="M 7.1875 -18.828125 L 5.296875 -18.53125 L 9.921875 -5.125 L 10.390625 -3.5 L 10.46875 -3.5 L 10.9375 -5.125 L 15.546875 -18.546875 L 13.6875 -18.828125 L 13.6875 -20.625 L 20.1875 -20.625 L 20.1875 -18.828125 L 18.53125 -18.609375 L 11.625 0 L 9.21875 0 L 2.3125 -18.609375 L 0.671875 -18.828125 L 0.671875 -20.625 L 7.1875 -20.625 Z M 7.1875 -18.828125 "/></g></g></g><g fill="#070707" fill-opacity="1"><g transform="translate(209.549422, 91.064317)"><g><path d="M 1 0 L 1 -1.78125 L 3.3125 -2.1875 L 3.3125 -18.4375 L 1 -18.828125 L 1 -20.625 L 16.84375 -20.625 L 16.84375 -15.671875 L 14.453125 -15.671875 L 14.21875 -18.4375 L 6.109375 -18.4375 L 6.109375 -11.765625 L 14 -11.765625 L 14 -9.5625 L 6.109375 -9.5625 L 6.109375 -2.1875 L 14.390625 -2.1875 L 14.625 -4.9375 L 17 -4.9375 L 17 0 Z M 1 0 "/></g></g></g><g fill="#070707" fill-opacity="1"><g transform="translate(228.04535, 91.064317)"><g><path d="M 21.203125 -20.625 L 21.203125 -18.828125 L 18.90625 -18.4375 L 18.90625 0 L 16.109375 0 L 6.1875 -15.921875 L 6.109375 -15.890625 L 6.109375 -2.1875 L 8.421875 -1.78125 L 8.421875 0 L 1 0 L 1 -1.78125 L 3.3125 -2.1875 L 3.3125 -18.4375 L 1 -18.828125 L 1 -20.625 L 6.109375 -20.625 L 16.03125 -4.71875 L 16.109375 -4.75 L 16.109375 -18.4375 L 13.796875 -18.828125 L 13.796875 -20.625 Z M 21.203125 -20.625 "/></g></g></g><g fill="#070707" fill-opacity="1"><g transform="translate(250.138496, 91.064317)"><g><path d="M 17.671875 -20.625 L 17.671875 -16.0625 L 15.28125 -16.0625 L 15.078125 -18.4375 L 10.5 -18.4375 L 10.5 -2.1875 L 12.8125 -1.78125 L 12.8125 0 L 5.390625 0 L 5.390625 -1.78125 L 7.703125 -2.1875 L 7.703125 -18.4375 L 3.109375 -18.4375 L 2.921875 -16.0625 L 0.53125 -16.0625 L 0.53125 -20.625 Z M 17.671875 -20.625 "/></g></g></g><g fill="#070707" fill-opacity="1"><g transform="translate(268.322854, 91.064317)"><g><path d="M 8.265625 -20.625 L 8.265625 -18.828125 L 5.953125 -18.4375 L 5.953125 -6.640625 C 5.953125 -5.085938 6.394531 -3.90625 7.28125 -3.09375 C 8.164062 -2.289062 9.335938 -1.890625 10.796875 -1.890625 C 12.328125 -1.890625 13.554688 -2.289062 14.484375 -3.09375 C 15.421875 -3.894531 15.890625 -5.078125 15.890625 -6.640625 L 15.890625 -18.4375 L 13.59375 -18.828125 L 13.59375 -20.625 L 21 -20.625 L 21 -18.828125 L 18.6875 -18.4375 L 18.6875 -6.640625 C 18.6875 -4.398438 17.957031 -2.679688 16.5 -1.484375 C 15.039062 -0.296875 13.140625 0.296875 10.796875 0.296875 C 8.515625 0.296875 6.671875 -0.296875 5.265625 -1.484375 C 3.859375 -2.679688 3.15625 -4.398438 3.15625 -6.640625 L 3.15625 -18.4375 L 0.84375 -18.828125 L 0.84375 -20.625 Z M 8.265625 -20.625 "/></g></g></g><g fill="#070707" fill-opacity="1"><g transform="translate(290.146924, 91.064317)"><g><path d="M 10.0625 -20.609375 C 12.3125 -20.609375 14.035156 -20.109375 15.234375 -19.109375 C 16.429688 -18.117188 17.03125 -16.707031 17.03125 -14.875 C 17.03125 -13.875 16.75 -12.984375 16.1875 -12.203125 C 15.632812 -11.429688 14.835938 -10.828125 13.796875 -10.390625 C 14.921875 -10.015625 15.726562 -9.410156 16.21875 -8.578125 C 16.71875 -7.753906 16.96875 -6.734375 16.96875 -5.515625 L 16.96875 -3.859375 C 16.96875 -3.222656 17.046875 -2.753906 17.203125 -2.453125 C 17.367188 -2.148438 17.632812 -1.96875 18 -1.90625 L 18.6875 -1.828125 L 18.6875 0 L 17.1875 0 C 16.101562 0 15.332031 -0.375 14.875 -1.125 C 14.414062 -1.882812 14.1875 -2.800781 14.1875 -3.875 L 14.1875 -5.484375 C 14.1875 -6.609375 13.859375 -7.507812 13.203125 -8.1875 C 12.554688 -8.863281 11.679688 -9.203125 10.578125 -9.203125 L 6.109375 -9.203125 L 6.109375 -2.1875 L 8.421875 -1.78125 L 8.421875 0 L 1 0 L 1 -1.78125 L 3.3125 -2.1875 L 3.3125 -18.4375 L 1 -18.828125 L 1 -20.609375 Z M 6.109375 -11.40625 L 9.78125 -11.40625 C 11.332031 -11.40625 12.460938 -11.703125 13.171875 -12.296875 C 13.878906 -12.890625 14.234375 -13.757812 14.234375 -14.90625 C 14.234375 -15.988281 13.894531 -16.847656 13.21875 -17.484375 C 12.539062 -18.117188 11.488281 -18.4375 10.0625 -18.4375 L 6.109375 -18.4375 Z M 6.109375 -11.40625 "/></g></g></g><g fill="#070707" fill-opacity="1"><g transform="translate(309.775835, 91.064317)"><g><path d="M 1 0 L 1 -1.78125 L 3.3125 -2.1875 L 3.3125 -18.4375 L 1 -18.828125 L 1 -20.625 L 16.84375 -20.625 L 16.84375 -15.671875 L 14.453125 -15.671875 L 14.21875 -18.4375 L 6.109375 -18.4375 L 6.109375 -11.765625 L 14 -11.765625 L 14 -9.5625 L 6.109375 -9.5625 L 6.109375 -2.1875 L 14.390625 -2.1875 L 14.625 -4.9375 L 17 -4.9375 L 17 0 Z M 1 0 "/></g></g></g><g fill="#070707" fill-opacity="1"><g transform="translate(328.271764, 91.064317)"><g><path d="M 15.9375 -14.53125 L 13.828125 -14.53125 L 13.296875 -17.484375 C 12.878906 -17.835938 12.316406 -18.132812 11.609375 -18.375 C 10.898438 -18.613281 10.078125 -18.734375 9.140625 -18.734375 C 7.648438 -18.734375 6.507812 -18.414062 5.71875 -17.78125 C 4.925781 -17.15625 4.53125 -16.335938 4.53125 -15.328125 C 4.53125 -14.429688 4.929688 -13.679688 5.734375 -13.078125 C 6.546875 -12.484375 7.851562 -11.957031 9.65625 -11.5 C 11.832031 -10.96875 13.484375 -10.175781 14.609375 -9.125 C 15.742188 -8.070312 16.3125 -6.773438 16.3125 -5.234375 C 16.3125 -3.566406 15.628906 -2.226562 14.265625 -1.21875 C 12.910156 -0.207031 11.140625 0.296875 8.953125 0.296875 C 7.367188 0.296875 5.957031 0.0351562 4.71875 -0.484375 C 3.488281 -1.003906 2.488281 -1.679688 1.71875 -2.515625 L 1.71875 -6.359375 L 3.8125 -6.359375 L 4.34375 -3.40625 C 4.882812 -2.957031 5.523438 -2.59375 6.265625 -2.3125 C 7.015625 -2.03125 7.910156 -1.890625 8.953125 -1.890625 C 10.359375 -1.890625 11.46875 -2.1875 12.28125 -2.78125 C 13.101562 -3.375 13.515625 -4.179688 13.515625 -5.203125 C 13.515625 -6.140625 13.160156 -6.925781 12.453125 -7.5625 C 11.742188 -8.207031 10.492188 -8.75 8.703125 -9.1875 C 6.515625 -9.695312 4.804688 -10.457031 3.578125 -11.46875 C 2.359375 -12.476562 1.75 -13.75 1.75 -15.28125 C 1.75 -16.894531 2.429688 -18.238281 3.796875 -19.3125 C 5.160156 -20.382812 6.941406 -20.921875 9.140625 -20.921875 C 10.585938 -20.921875 11.898438 -20.671875 13.078125 -20.171875 C 14.265625 -19.679688 15.21875 -19.082031 15.9375 -18.375 Z M 15.9375 -14.53125 "/></g></g></g></svg>