<svg xmlns="http://www.w3.org/2000/svg" xmlns:xlink="http://www.w3.org/1999/xlink" width="500" zoomAndPan="magnify" viewBox="0 0 375 187.499995" height="250" preserveAspectRatio="xMidYMid meet" version="1.0"><defs><g/></defs><g fill="#070707" fill-opacity="1"><g transform="translate(19.222862, 93.714528)"><g><path d="M 66.15625 -43.609375 L 62.0625 -43.09375 L 52.015625 0 L 42.78125 0 L 33.6875 -32.734375 L 33.484375 -32.734375 L 24.390625 0 L 15.15625 0 L 5.046875 -43.09375 L 0.984375 -43.609375 L 0.984375 -49.59375 L 19.25 -49.59375 L 19.25 -43.609375 L 14.71875 -42.8125 L 20.40625 -15.640625 L 20.609375 -15.609375 L 29.90625 -49.59375 L 37.234375 -49.59375 L 46.59375 -15.609375 L 46.8125 -15.640625 L 52.453125 -42.8125 L 47.9375 -43.609375 L 47.9375 -49.59375 L 66.15625 -49.59375 Z M 66.15625 -43.609375 "/></g></g></g><g fill="#070707" fill-opacity="1"><g transform="translate(86.393783, 93.714528)"><g><path d="M 1.90625 -43.609375 L 1.90625 -49.59375 L 22.453125 -49.59375 L 22.453125 -43.609375 L 17.140625 -42.578125 L 17.140625 -28.28125 L 37.375 -28.28125 L 37.375 -42.578125 L 32.0625 -43.609375 L 32.0625 -49.59375 L 52.59375 -49.59375 L 52.59375 -43.609375 L 47.28125 -42.578125 L 47.28125 -6.984375 L 52.59375 -5.96875 L 52.59375 0 L 32.0625 0 L 32.0625 -5.96875 L 37.375 -6.984375 L 37.375 -20.609375 L 17.140625 -20.609375 L 17.140625 -6.984375 L 22.453125 -5.96875 L 22.453125 0 L 1.90625 0 L 1.90625 -5.96875 L 7.1875 -6.984375 L 7.1875 -42.578125 Z M 1.90625 -43.609375 "/></g></g></g><g fill="#070707" fill-opacity="1"><g transform="translate(140.927578, 93.714528)"><g><path d="M 20 -43.609375 L 15.9375 -43.03125 L 23.640625 -26.734375 L 23.84375 -26.734375 L 31.546875 -43.03125 L 27.53125 -43.609375 L 27.53125 -49.59375 L 46.296875 -49.59375 L 46.296875 -43.609375 L 42.078125 -42.921875 L 28.578125 -17.4375 L 28.578125 -6.984375 L 33.890625 -5.96875 L 33.890625 0 L 13.359375 0 L 13.359375 -5.96875 L 18.671875 -6.984375 L 18.671875 -17.953125 L 5.421875 -42.921875 L 1.21875 -43.609375 L 1.21875 -49.59375 L 20 -49.59375 Z M 20 -43.609375 "/></g></g></g><g fill="#070707" fill-opacity="1"><g transform="translate(188.54672, 93.714528)"><g/></g></g><g fill="#070707" fill-opacity="1"><g transform="translate(205.646011, 93.714528)"><g><path d="M 52.59375 -49.59375 L 52.59375 -43.609375 L 47.28125 -42.578125 L 47.28125 0 L 37.375 0 L 17.34375 -33.390625 L 17.140625 -33.34375 L 17.140625 -6.984375 L 22.453125 -5.96875 L 22.453125 0 L 1.90625 0 L 1.90625 -5.96875 L 7.1875 -6.984375 L 7.1875 -42.578125 L 1.90625 -43.609375 L 1.90625 -49.59375 L 17.140625 -49.59375 L 37.171875 -16.21875 L 37.375 -16.25 L 37.375 -42.578125 L 32.0625 -43.609375 L 32.0625 -49.59375 Z M 52.59375 -49.59375 "/></g></g></g><g fill="#070707" fill-opacity="1"><g transform="translate(259.532622, 93.714528)"><g><path d="M 47.25 -24.421875 C 47.25 -17.160156 45.171875 -11.15625 41.015625 -6.40625 C 36.859375 -1.65625 31.421875 0.71875 24.703125 0.71875 C 17.992188 0.71875 12.578125 -1.65625 8.453125 -6.40625 C 4.335938 -11.15625 2.28125 -17.160156 2.28125 -24.421875 L 2.28125 -25.171875 C 2.28125 -32.390625 4.332031 -38.382812 8.4375 -43.15625 C 12.550781 -47.925781 17.957031 -50.3125 24.65625 -50.3125 C 31.382812 -50.3125 36.832031 -47.925781 41 -43.15625 C 45.164062 -38.382812 47.25 -32.390625 47.25 -25.171875 Z M 37.328125 -25.25 C 37.328125 -30.375 36.257812 -34.535156 34.125 -37.734375 C 32 -40.941406 28.84375 -42.546875 24.65625 -42.546875 C 20.476562 -42.546875 17.363281 -40.957031 15.3125 -37.78125 C 13.257812 -34.601562 12.234375 -30.425781 12.234375 -25.25 L 12.234375 -24.421875 C 12.234375 -19.203125 13.269531 -14.992188 15.34375 -11.796875 C 17.425781 -8.609375 20.546875 -7.015625 24.703125 -7.015625 C 28.898438 -7.015625 32.050781 -8.609375 34.15625 -11.796875 C 36.269531 -14.992188 37.328125 -19.203125 37.328125 -24.421875 Z M 37.328125 -25.25 "/></g></g></g><g fill="#070707" fill-opacity="1"><g transform="translate(308.854881, 93.714528)"><g><path d="M 45.578125 -49.59375 L 45.578125 -36.375 L 37.953125 -36.375 L 37.546875 -41.9375 L 28.40625 -41.9375 L 28.40625 -6.984375 L 33.71875 -5.96875 L 33.71875 0 L 13.15625 0 L 13.15625 -5.96875 L 18.46875 -6.984375 L 18.46875 -41.9375 L 9.375 -41.9375 L 8.953125 -36.375 L 1.359375 -36.375 L 1.359375 -49.59375 Z M 45.578125 -49.59375 "/></g></g></g><g fill="#070707" fill-opacity="1"><g transform="translate(20.44967, 149.692512)"><g><path d="M 1.3125 -3 L 3.890625 -3.359375 L 16.015625 -34.703125 L 20.046875 -34.703125 L 31.96875 -3.359375 L 34.515625 -3 L 34.515625 0 L 24.546875 0 L 24.546875 -3 L 27.171875 -3.453125 L 24.890625 -9.84375 L 10.984375 -9.84375 L 8.625 -3.453125 L 11.25 -3 L 11.25 0 L 1.3125 0 Z M 12.4375 -13.78125 L 23.453125 -13.78125 L 18.0625 -28.671875 L 17.921875 -28.671875 Z M 12.4375 -13.78125 "/></g></g></g><g fill="#070707" fill-opacity="1"><g transform="translate(56.197501, 149.692512)"><g><path d="M 16.234375 -34.703125 C 20.765625 -34.703125 24.40625 -33.304688 27.15625 -30.515625 C 29.914062 -27.734375 31.296875 -24.128906 31.296875 -19.703125 L 31.296875 -14.96875 C 31.296875 -10.53125 29.914062 -6.925781 27.15625 -4.15625 C 24.40625 -1.382812 20.765625 0 16.234375 0 L 1.6875 0 L 1.6875 -3 L 5.578125 -3.671875 L 5.578125 -31.015625 L 1.6875 -31.671875 L 1.6875 -34.703125 Z M 10.265625 -31.015625 L 10.265625 -3.671875 L 16.234375 -3.671875 C 19.441406 -3.671875 21.96875 -4.726562 23.8125 -6.84375 C 25.664062 -8.957031 26.59375 -11.664062 26.59375 -14.96875 L 26.59375 -19.765625 C 26.59375 -23.035156 25.664062 -25.726562 23.8125 -27.84375 C 21.96875 -29.957031 19.441406 -31.015625 16.234375 -31.015625 Z M 10.265625 -31.015625 "/></g></g></g><g fill="#070707" fill-opacity="1"><g transform="translate(90.014962, 149.692512)"><g><path d="M 12.078125 -31.671875 L 8.90625 -31.171875 L 16.6875 -8.625 L 17.46875 -5.890625 L 17.609375 -5.890625 L 18.40625 -8.625 L 26.140625 -31.203125 L 23.03125 -31.671875 L 23.03125 -34.703125 L 33.96875 -34.703125 L 33.96875 -31.671875 L 31.171875 -31.296875 L 19.546875 0 L 15.515625 0 L 3.890625 -31.296875 L 1.125 -31.671875 L 1.125 -34.703125 L 12.078125 -34.703125 Z M 12.078125 -31.671875 "/></g></g></g><g fill="#070707" fill-opacity="1"><g transform="translate(125.047837, 149.692512)"><g><path d="M 1.6875 0 L 1.6875 -3 L 5.578125 -3.671875 L 5.578125 -31.015625 L 1.6875 -31.671875 L 1.6875 -34.703125 L 28.34375 -34.703125 L 28.34375 -26.359375 L 24.3125 -26.359375 L 23.921875 -31.015625 L 10.265625 -31.015625 L 10.265625 -19.78125 L 23.546875 -19.78125 L 23.546875 -16.09375 L 10.265625 -16.09375 L 10.265625 -3.671875 L 24.21875 -3.671875 L 24.59375 -8.3125 L 28.59375 -8.3125 L 28.59375 0 Z M 1.6875 0 "/></g></g></g><g fill="#070707" fill-opacity="1"><g transform="translate(156.172282, 149.692512)"><g><path d="M 35.6875 -34.703125 L 35.6875 -31.671875 L 31.796875 -31.015625 L 31.796875 0 L 27.09375 0 L 10.421875 -26.796875 L 10.265625 -26.734375 L 10.265625 -3.671875 L 14.15625 -3 L 14.15625 0 L 1.6875 0 L 1.6875 -3 L 5.578125 -3.671875 L 5.578125 -31.015625 L 1.6875 -31.671875 L 1.6875 -34.703125 L 10.265625 -34.703125 L 26.953125 -7.9375 L 27.09375 -7.984375 L 27.09375 -31.015625 L 23.21875 -31.671875 L 23.21875 -34.703125 Z M 35.6875 -34.703125 "/></g></g></g><g fill="#070707" fill-opacity="1"><g transform="translate(193.350027, 149.692512)"><g><path d="M 29.71875 -34.703125 L 29.71875 -27.03125 L 25.71875 -27.03125 L 25.359375 -31.015625 L 17.65625 -31.015625 L 17.65625 -3.671875 L 21.546875 -3 L 21.546875 0 L 9.078125 0 L 9.078125 -3 L 12.96875 -3.671875 L 12.96875 -31.015625 L 5.25 -31.015625 L 4.90625 -27.03125 L 0.875 -27.03125 L 0.875 -34.703125 Z M 29.71875 -34.703125 "/></g></g></g><g fill="#070707" fill-opacity="1"><g transform="translate(223.95017, 149.692512)"><g><path d="M 13.890625 -34.703125 L 13.890625 -31.671875 L 10.015625 -31.015625 L 10.015625 -11.171875 C 10.015625 -8.554688 10.757812 -6.566406 12.25 -5.203125 C 13.738281 -3.847656 15.707031 -3.171875 18.15625 -3.171875 C 20.726562 -3.171875 22.800781 -3.84375 24.375 -5.1875 C 25.945312 -6.539062 26.734375 -8.535156 26.734375 -11.171875 L 26.734375 -31.015625 L 22.859375 -31.671875 L 22.859375 -34.703125 L 35.328125 -34.703125 L 35.328125 -31.671875 L 31.4375 -31.015625 L 31.4375 -11.171875 C 31.4375 -7.410156 30.207031 -4.523438 27.75 -2.515625 C 25.300781 -0.503906 22.101562 0.5 18.15625 0.5 C 14.332031 0.5 11.234375 -0.503906 8.859375 -2.515625 C 6.492188 -4.523438 5.3125 -7.410156 5.3125 -11.171875 L 5.3125 -31.015625 L 1.4375 -31.671875 L 1.4375 -34.703125 Z M 13.890625 -34.703125 "/></g></g></g><g fill="#070707" fill-opacity="1"><g transform="translate(260.675121, 149.692512)"><g><path d="M 16.921875 -34.671875 C 20.703125 -34.671875 23.601562 -33.832031 25.625 -32.15625 C 27.644531 -30.488281 28.65625 -28.113281 28.65625 -25.03125 C 28.65625 -23.34375 28.1875 -21.847656 27.25 -20.546875 C 26.3125 -19.242188 24.96875 -18.21875 23.21875 -17.46875 C 25.101562 -16.851562 26.460938 -15.84375 27.296875 -14.4375 C 28.128906 -13.039062 28.546875 -11.316406 28.546875 -9.265625 L 28.546875 -6.484375 C 28.546875 -5.421875 28.679688 -4.632812 28.953125 -4.125 C 29.222656 -3.613281 29.671875 -3.3125 30.296875 -3.21875 L 31.4375 -3.078125 L 31.4375 0 L 28.90625 0 C 27.082031 0 25.785156 -0.632812 25.015625 -1.90625 C 24.242188 -3.175781 23.859375 -4.71875 23.859375 -6.53125 L 23.859375 -9.21875 C 23.859375 -11.113281 23.304688 -12.632812 22.203125 -13.78125 C 21.109375 -14.925781 19.640625 -15.5 17.796875 -15.5 L 10.265625 -15.5 L 10.265625 -3.671875 L 14.15625 -3 L 14.15625 0 L 1.6875 0 L 1.6875 -3 L 5.578125 -3.671875 L 5.578125 -31.015625 L 1.6875 -31.671875 L 1.6875 -34.671875 Z M 10.265625 -19.1875 L 16.453125 -19.1875 C 19.066406 -19.1875 20.96875 -19.6875 22.15625 -20.6875 C 23.351562 -21.6875 23.953125 -23.148438 23.953125 -25.078125 C 23.953125 -26.898438 23.378906 -28.34375 22.234375 -29.40625 C 21.085938 -30.476562 19.316406 -31.015625 16.921875 -31.015625 L 10.265625 -31.015625 Z M 10.265625 -19.1875 "/></g></g></g><g fill="#070707" fill-opacity="1"><g transform="translate(293.706118, 149.692512)"><g><path d="M 1.6875 0 L 1.6875 -3 L 5.578125 -3.671875 L 5.578125 -31.015625 L 1.6875 -31.671875 L 1.6875 -34.703125 L 28.34375 -34.703125 L 28.34375 -26.359375 L 24.3125 -26.359375 L 23.921875 -31.015625 L 10.265625 -31.015625 L 10.265625 -19.78125 L 23.546875 -19.78125 L 23.546875 -16.09375 L 10.265625 -16.09375 L 10.265625 -3.671875 L 24.21875 -3.671875 L 24.59375 -8.3125 L 28.59375 -8.3125 L 28.59375 0 Z M 1.6875 0 "/></g></g></g><g fill="#070707" fill-opacity="1"><g transform="translate(324.830563, 149.692512)"><g><path d="M 26.8125 -24.453125 L 23.265625 -24.453125 L 22.375 -29.40625 C 21.664062 -30.007812 20.710938 -30.507812 19.515625 -30.90625 C 18.328125 -31.3125 16.945312 -31.515625 15.375 -31.515625 C 12.875 -31.515625 10.957031 -30.984375 9.625 -29.921875 C 8.289062 -28.867188 7.625 -27.488281 7.625 -25.78125 C 7.625 -24.28125 8.300781 -23.023438 9.65625 -22.015625 C 11.019531 -21.003906 13.21875 -20.117188 16.25 -19.359375 C 19.90625 -18.453125 22.679688 -17.113281 24.578125 -15.34375 C 26.484375 -13.582031 27.4375 -11.398438 27.4375 -8.796875 C 27.4375 -5.992188 26.296875 -3.742188 24.015625 -2.046875 C 21.734375 -0.347656 18.75 0.5 15.0625 0.5 C 12.394531 0.5 10.023438 0.0625 7.953125 -0.8125 C 5.878906 -1.6875 4.191406 -2.832031 2.890625 -4.25 L 2.890625 -10.703125 L 6.40625 -10.703125 L 7.3125 -5.71875 C 8.21875 -4.96875 9.296875 -4.351562 10.546875 -3.875 C 11.804688 -3.40625 13.3125 -3.171875 15.0625 -3.171875 C 17.425781 -3.171875 19.296875 -3.671875 20.671875 -4.671875 C 22.046875 -5.671875 22.734375 -7.03125 22.734375 -8.75 C 22.734375 -10.332031 22.132812 -11.660156 20.9375 -12.734375 C 19.75 -13.804688 17.648438 -14.707031 14.640625 -15.4375 C 10.960938 -16.3125 8.09375 -17.597656 6.03125 -19.296875 C 3.96875 -21.003906 2.9375 -23.144531 2.9375 -25.71875 C 2.9375 -28.4375 4.085938 -30.695312 6.390625 -32.5 C 8.691406 -34.300781 11.6875 -35.203125 15.375 -35.203125 C 17.800781 -35.203125 20.007812 -34.785156 22 -33.953125 C 24 -33.117188 25.601562 -32.101562 26.8125 -30.90625 Z M 26.8125 -24.453125 "/></g></g></g></svg>