<svg xmlns="http://www.w3.org/2000/svg" xmlns:xlink="http://www.w3.org/1999/xlink" width="500" zoomAndPan="magnify" viewBox="0 0 375 124.499996" height="166" preserveAspectRatio="xMidYMid meet" version="1.0"><defs><g/><clipPath id="158cdb9014"><path d="M 13.167969 21.527344 L 144.160156 21.527344 L 144.160156 102.585938 L 13.167969 102.585938 Z M 13.167969 21.527344 " clip-rule="nonzero"/></clipPath></defs><g clip-path="url(#158cdb9014)"><path fill="#070707" d="M 13.449219 100.144531 L 43.09375 55.363281 C 43.734375 54.394531 45.15625 54.363281 45.882812 55.304688 L 50.855469 61.710938 C 51.203125 62.160156 51.875 62.152344 52.191406 61.699219 L 79.625 22.242188 C 80.292969 21.277344 81.734375 21.292969 82.433594 22.273438 L 102.703125 50.574219 C 103.058594 51.070312 103.800781 51.046875 104.097656 50.53125 L 108.441406 42.949219 C 109.09375 41.8125 110.757812 41.84375 111.425781 43.007812 L 144.300781 100.292969 C 144.957031 101.4375 144.164062 102.839844 142.859375 102.839844 L 14.9375 102.839844 C 13.550781 102.839844 12.695312 101.285156 13.449219 100.144531 " fill-opacity="1" fill-rule="nonzero"/></g><g fill="#070707" fill-opacity="1"><g transform="translate(155.790858, 62.131931)"><g><path d="M 40.5 -26.703125 L 38 -26.390625 L 31.84375 0 L 26.203125 0 L 20.625 -20.046875 L 20.5 -20.046875 L 14.9375 0 L 9.28125 0 L 3.09375 -26.390625 L 0.609375 -26.703125 L 0.609375 -30.375 L 11.78125 -30.375 L 11.78125 -26.703125 L 9.015625 -26.21875 L 12.5 -9.578125 L 12.625 -9.546875 L 18.3125 -30.375 L 22.796875 -30.375 L 28.53125 -9.546875 L 28.65625 -9.578125 L 32.125 -26.21875 L 29.34375 -26.703125 L 29.34375 -30.375 L 40.5 -30.375 Z M 40.5 -26.703125 "/></g></g></g><g fill="#070707" fill-opacity="1"><g transform="translate(196.914033, 62.131931)"><g><path d="M 1.171875 -26.703125 L 1.171875 -30.375 L 13.75 -30.375 L 13.75 -26.703125 L 10.484375 -26.078125 L 10.484375 -17.3125 L 22.875 -17.3125 L 22.875 -26.078125 L 19.625 -26.703125 L 19.625 -30.375 L 32.203125 -30.375 L 32.203125 -26.703125 L 28.953125 -26.078125 L 28.953125 -4.28125 L 32.203125 -3.65625 L 32.203125 0 L 19.625 0 L 19.625 -3.65625 L 22.875 -4.28125 L 22.875 -12.625 L 10.484375 -12.625 L 10.484375 -4.28125 L 13.75 -3.65625 L 13.75 0 L 1.171875 0 L 1.171875 -3.65625 L 4.40625 -4.28125 L 4.40625 -26.078125 Z M 1.171875 -26.703125 "/></g></g></g><g fill="#070707" fill-opacity="1"><g transform="translate(230.300547, 62.131931)"><g><path d="M 12.25 -26.703125 L 9.765625 -26.34375 L 14.46875 -16.375 L 14.59375 -16.375 L 19.3125 -26.34375 L 16.859375 -26.703125 L 16.859375 -30.375 L 28.34375 -30.375 L 28.34375 -26.703125 L 25.765625 -26.28125 L 17.5 -10.6875 L 17.5 -4.28125 L 20.75 -3.65625 L 20.75 0 L 8.171875 0 L 8.171875 -3.65625 L 11.4375 -4.28125 L 11.4375 -11 L 3.3125 -26.28125 L 0.75 -26.703125 L 0.75 -30.375 L 12.25 -30.375 Z M 12.25 -26.703125 "/></g></g></g><g fill="#070707" fill-opacity="1"><g transform="translate(259.453792, 62.131931)"><g/></g></g><g fill="#070707" fill-opacity="1"><g transform="translate(269.922267, 62.131931)"><g><path d="M 32.203125 -30.375 L 32.203125 -26.703125 L 28.953125 -26.078125 L 28.953125 0 L 22.875 0 L 10.609375 -20.4375 L 10.484375 -20.421875 L 10.484375 -4.28125 L 13.75 -3.65625 L 13.75 0 L 1.171875 0 L 1.171875 -3.65625 L 4.40625 -4.28125 L 4.40625 -26.078125 L 1.171875 -26.703125 L 1.171875 -30.375 L 10.484375 -30.375 L 22.75 -9.921875 L 22.875 -9.953125 L 22.875 -26.078125 L 19.625 -26.703125 L 19.625 -30.375 Z M 32.203125 -30.375 "/></g></g></g><g fill="#070707" fill-opacity="1"><g transform="translate(302.912563, 62.131931)"><g><path d="M 28.9375 -14.953125 C 28.9375 -10.503906 27.660156 -6.828125 25.109375 -3.921875 C 22.566406 -1.015625 19.238281 0.4375 15.125 0.4375 C 11.019531 0.4375 7.703125 -1.015625 5.171875 -3.921875 C 2.648438 -6.828125 1.390625 -10.503906 1.390625 -14.953125 L 1.390625 -15.421875 C 1.390625 -19.835938 2.648438 -23.503906 5.171875 -26.421875 C 7.691406 -29.347656 11.003906 -30.8125 15.109375 -30.8125 C 19.222656 -30.8125 22.554688 -29.347656 25.109375 -26.421875 C 27.660156 -23.503906 28.9375 -19.835938 28.9375 -15.421875 Z M 22.859375 -15.453125 C 22.859375 -18.597656 22.203125 -21.148438 20.890625 -23.109375 C 19.585938 -25.066406 17.660156 -26.046875 15.109375 -26.046875 C 12.546875 -26.046875 10.632812 -25.070312 9.375 -23.125 C 8.113281 -21.1875 7.484375 -18.628906 7.484375 -15.453125 L 7.484375 -14.953125 C 7.484375 -11.753906 8.117188 -9.175781 9.390625 -7.21875 C 10.671875 -5.269531 12.582031 -4.296875 15.125 -4.296875 C 17.695312 -4.296875 19.628906 -5.269531 20.921875 -7.21875 C 22.210938 -9.175781 22.859375 -11.753906 22.859375 -14.953125 Z M 22.859375 -15.453125 "/></g></g></g><g fill="#070707" fill-opacity="1"><g transform="translate(333.108486, 62.131931)"><g><path d="M 27.90625 -30.375 L 27.90625 -22.28125 L 23.234375 -22.28125 L 22.984375 -25.671875 L 17.390625 -25.671875 L 17.390625 -4.28125 L 20.65625 -3.65625 L 20.65625 0 L 8.046875 0 L 8.046875 -3.65625 L 11.3125 -4.28125 L 11.3125 -25.671875 L 5.734375 -25.671875 L 5.484375 -22.28125 L 0.828125 -22.28125 L 0.828125 -30.375 Z M 27.90625 -30.375 "/></g></g></g><g fill="#070707" fill-opacity="1"><g transform="translate(156.54193, 96.402607)"><g><path d="M 0.796875 -1.84375 L 2.375 -2.0625 L 9.8125 -21.25 L 12.28125 -21.25 L 19.578125 -2.0625 L 21.140625 -1.84375 L 21.140625 0 L 15.03125 0 L 15.03125 -1.84375 L 16.640625 -2.109375 L 15.234375 -6.03125 L 6.734375 -6.03125 L 5.28125 -2.109375 L 6.890625 -1.84375 L 6.890625 0 L 0.796875 0 Z M 7.625 -8.4375 L 14.359375 -8.4375 L 11.0625 -17.5625 L 10.96875 -17.5625 Z M 7.625 -8.4375 "/></g></g></g><g fill="#070707" fill-opacity="1"><g transform="translate(178.427358, 96.402607)"><g><path d="M 9.9375 -21.25 C 12.707031 -21.25 14.9375 -20.394531 16.625 -18.6875 C 18.3125 -16.976562 19.15625 -14.769531 19.15625 -12.0625 L 19.15625 -9.171875 C 19.15625 -6.453125 18.3125 -4.242188 16.625 -2.546875 C 14.9375 -0.847656 12.707031 0 9.9375 0 L 1.03125 0 L 1.03125 -1.84375 L 3.421875 -2.25 L 3.421875 -18.984375 L 1.03125 -19.390625 L 1.03125 -21.25 Z M 6.296875 -18.984375 L 6.296875 -2.25 L 9.9375 -2.25 C 11.90625 -2.25 13.453125 -2.894531 14.578125 -4.1875 C 15.710938 -5.476562 16.28125 -7.140625 16.28125 -9.171875 L 16.28125 -12.09375 C 16.28125 -14.101562 15.710938 -15.753906 14.578125 -17.046875 C 13.453125 -18.335938 11.90625 -18.984375 9.9375 -18.984375 Z M 6.296875 -18.984375 "/></g></g></g><g fill="#070707" fill-opacity="1"><g transform="translate(199.13098, 96.402607)"><g><path d="M 7.40625 -19.390625 L 5.453125 -19.09375 L 10.21875 -5.28125 L 10.703125 -3.609375 L 10.78125 -3.609375 L 11.265625 -5.28125 L 16.015625 -19.109375 L 14.09375 -19.390625 L 14.09375 -21.25 L 20.796875 -21.25 L 20.796875 -19.390625 L 19.09375 -19.15625 L 11.96875 0 L 9.5 0 L 2.375 -19.15625 L 0.6875 -19.390625 L 0.6875 -21.25 L 7.40625 -21.25 Z M 7.40625 -19.390625 "/></g></g></g><g fill="#070707" fill-opacity="1"><g transform="translate(220.5787, 96.402607)"><g><path d="M 1.03125 0 L 1.03125 -1.84375 L 3.421875 -2.25 L 3.421875 -18.984375 L 1.03125 -19.390625 L 1.03125 -21.25 L 17.359375 -21.25 L 17.359375 -16.140625 L 14.890625 -16.140625 L 14.65625 -18.984375 L 6.296875 -18.984375 L 6.296875 -12.109375 L 14.421875 -12.109375 L 14.421875 -9.859375 L 6.296875 -9.859375 L 6.296875 -2.25 L 14.828125 -2.25 L 15.0625 -5.09375 L 17.515625 -5.09375 L 17.515625 0 Z M 1.03125 0 "/></g></g></g><g fill="#070707" fill-opacity="1"><g transform="translate(239.633612, 96.402607)"><g><path d="M 21.84375 -21.25 L 21.84375 -19.390625 L 19.46875 -18.984375 L 19.46875 0 L 16.59375 0 L 6.375 -16.40625 L 6.296875 -16.375 L 6.296875 -2.25 L 8.671875 -1.84375 L 8.671875 0 L 1.03125 0 L 1.03125 -1.84375 L 3.421875 -2.25 L 3.421875 -18.984375 L 1.03125 -19.390625 L 1.03125 -21.25 L 6.296875 -21.25 L 16.5 -4.859375 L 16.59375 -4.890625 L 16.59375 -18.984375 L 14.21875 -19.390625 L 14.21875 -21.25 Z M 21.84375 -21.25 "/></g></g></g><g fill="#070707" fill-opacity="1"><g transform="translate(262.394458, 96.402607)"><g><path d="M 18.203125 -21.25 L 18.203125 -16.546875 L 15.75 -16.546875 L 15.53125 -18.984375 L 10.8125 -18.984375 L 10.8125 -2.25 L 13.1875 -1.84375 L 13.1875 0 L 5.5625 0 L 5.5625 -1.84375 L 7.9375 -2.25 L 7.9375 -18.984375 L 3.203125 -18.984375 L 3 -16.546875 L 0.546875 -16.546875 L 0.546875 -21.25 Z M 18.203125 -21.25 "/></g></g></g><g fill="#070707" fill-opacity="1"><g transform="translate(281.128384, 96.402607)"><g><path d="M 8.515625 -21.25 L 8.515625 -19.390625 L 6.125 -18.984375 L 6.125 -6.84375 C 6.125 -5.238281 6.582031 -4.019531 7.5 -3.1875 C 8.414062 -2.351562 9.625 -1.9375 11.125 -1.9375 C 12.695312 -1.9375 13.960938 -2.347656 14.921875 -3.171875 C 15.890625 -4.003906 16.375 -5.226562 16.375 -6.84375 L 16.375 -18.984375 L 14 -19.390625 L 14 -21.25 L 21.625 -21.25 L 21.625 -19.390625 L 19.25 -18.984375 L 19.25 -6.84375 C 19.25 -4.539062 18.492188 -2.769531 16.984375 -1.53125 C 15.484375 -0.300781 13.53125 0.3125 11.125 0.3125 C 8.78125 0.3125 6.878906 -0.300781 5.421875 -1.53125 C 3.972656 -2.769531 3.25 -4.539062 3.25 -6.84375 L 3.25 -18.984375 L 0.875 -19.390625 L 0.875 -21.25 Z M 8.515625 -21.25 "/></g></g></g><g fill="#070707" fill-opacity="1"><g transform="translate(303.612021, 96.402607)"><g><path d="M 10.359375 -21.234375 C 12.679688 -21.234375 14.457031 -20.71875 15.6875 -19.6875 C 16.925781 -18.664062 17.546875 -17.210938 17.546875 -15.328125 C 17.546875 -14.296875 17.257812 -13.378906 16.6875 -12.578125 C 16.113281 -11.785156 15.289062 -11.160156 14.21875 -10.703125 C 15.375 -10.316406 16.207031 -9.695312 16.71875 -8.84375 C 17.226562 -7.988281 17.484375 -6.929688 17.484375 -5.671875 L 17.484375 -3.96875 C 17.484375 -3.3125 17.566406 -2.828125 17.734375 -2.515625 C 17.898438 -2.210938 18.171875 -2.03125 18.546875 -1.96875 L 19.25 -1.875 L 19.25 0 L 17.703125 0 C 16.585938 0 15.789062 -0.382812 15.3125 -1.15625 C 14.84375 -1.9375 14.609375 -2.882812 14.609375 -4 L 14.609375 -5.640625 C 14.609375 -6.804688 14.269531 -7.738281 13.59375 -8.4375 C 12.925781 -9.132812 12.03125 -9.484375 10.90625 -9.484375 L 6.296875 -9.484375 L 6.296875 -2.25 L 8.671875 -1.84375 L 8.671875 0 L 1.03125 0 L 1.03125 -1.84375 L 3.421875 -2.25 L 3.421875 -18.984375 L 1.03125 -19.390625 L 1.03125 -21.234375 Z M 6.296875 -11.75 L 10.078125 -11.75 C 11.679688 -11.75 12.847656 -12.054688 13.578125 -12.671875 C 14.304688 -13.285156 14.671875 -14.179688 14.671875 -15.359375 C 14.671875 -16.472656 14.316406 -17.351562 13.609375 -18 C 12.910156 -18.65625 11.828125 -18.984375 10.359375 -18.984375 L 6.296875 -18.984375 Z M 6.296875 -11.75 "/></g></g></g><g fill="#070707" fill-opacity="1"><g transform="translate(323.834157, 96.402607)"><g><path d="M 1.03125 0 L 1.03125 -1.84375 L 3.421875 -2.25 L 3.421875 -18.984375 L 1.03125 -19.390625 L 1.03125 -21.25 L 17.359375 -21.25 L 17.359375 -16.140625 L 14.890625 -16.140625 L 14.65625 -18.984375 L 6.296875 -18.984375 L 6.296875 -12.109375 L 14.421875 -12.109375 L 14.421875 -9.859375 L 6.296875 -9.859375 L 6.296875 -2.25 L 14.828125 -2.25 L 15.0625 -5.09375 L 17.515625 -5.09375 L 17.515625 0 Z M 1.03125 0 "/></g></g></g><g fill="#070707" fill-opacity="1"><g transform="translate(342.889069, 96.402607)"><g><path d="M 16.421875 -14.96875 L 14.25 -14.96875 L 13.703125 -18.015625 C 13.265625 -18.378906 12.679688 -18.679688 11.953125 -18.921875 C 11.222656 -19.171875 10.375 -19.296875 9.40625 -19.296875 C 7.882812 -19.296875 6.710938 -18.972656 5.890625 -18.328125 C 5.078125 -17.679688 4.671875 -16.835938 4.671875 -15.796875 C 4.671875 -14.867188 5.085938 -14.09375 5.921875 -13.46875 C 6.753906 -12.851562 8.097656 -12.3125 9.953125 -11.84375 C 12.191406 -11.289062 13.890625 -10.472656 15.046875 -9.390625 C 16.210938 -8.316406 16.796875 -6.984375 16.796875 -5.390625 C 16.796875 -3.671875 16.097656 -2.289062 14.703125 -1.25 C 13.304688 -0.207031 11.476562 0.3125 9.21875 0.3125 C 7.582031 0.3125 6.128906 0.046875 4.859375 -0.484375 C 3.597656 -1.023438 2.566406 -1.726562 1.765625 -2.59375 L 1.765625 -6.546875 L 3.921875 -6.546875 L 4.484375 -3.5 C 5.035156 -3.039062 5.695312 -2.664062 6.46875 -2.375 C 7.238281 -2.082031 8.15625 -1.9375 9.21875 -1.9375 C 10.675781 -1.9375 11.820312 -2.242188 12.65625 -2.859375 C 13.5 -3.472656 13.921875 -4.304688 13.921875 -5.359375 C 13.921875 -6.328125 13.554688 -7.140625 12.828125 -7.796875 C 12.097656 -8.453125 10.8125 -9.003906 8.96875 -9.453125 C 6.71875 -9.992188 4.957031 -10.785156 3.6875 -11.828125 C 2.425781 -12.867188 1.796875 -14.175781 1.796875 -15.75 C 1.796875 -17.414062 2.5 -18.800781 3.90625 -19.90625 C 5.320312 -21.007812 7.15625 -21.5625 9.40625 -21.5625 C 10.894531 -21.5625 12.25 -21.304688 13.46875 -20.796875 C 14.695312 -20.285156 15.679688 -19.664062 16.421875 -18.9375 Z M 16.421875 -14.96875 "/></g></g></g></svg>