<svg xmlns="http://www.w3.org/2000/svg" xmlns:xlink="http://www.w3.org/1999/xlink" width="500" zoomAndPan="magnify" viewBox="0 0 375 374.999991" height="500" preserveAspectRatio="xMidYMid meet" version="1.0"><defs><g/><clipPath id="65936f32fb"><path d="M 48.777344 155.292969 L 153.011719 155.292969 L 153.011719 219.792969 L 48.777344 219.792969 Z M 48.777344 155.292969 " clip-rule="nonzero"/></clipPath></defs><rect x="-37.5" width="450" fill="#ffffff" y="-37.499999" height="449.999989" fill-opacity="1"/><rect x="-37.5" width="450" fill="#f2f3f4" y="-37.499999" height="449.999989" fill-opacity="1"/><g clip-path="url(#65936f32fb)"><path fill="#070707" d="M 49 217.851562 L 72.589844 182.21875 C 73.101562 181.445312 74.230469 181.421875 74.8125 182.171875 L 78.765625 187.269531 C 79.042969 187.625 79.578125 187.621094 79.828125 187.257812 L 101.660156 155.863281 C 102.191406 155.097656 103.335938 155.109375 103.894531 155.886719 L 120.023438 178.410156 C 120.308594 178.804688 120.894531 178.785156 121.132812 178.371094 L 124.589844 172.339844 C 125.109375 171.433594 126.433594 171.460938 126.964844 172.386719 L 153.125 217.96875 C 153.648438 218.882812 153.015625 219.996094 151.976562 219.996094 L 50.183594 219.996094 C 49.082031 219.996094 48.402344 218.761719 49 217.851562 " fill-opacity="1" fill-rule="nonzero"/></g><g fill="#070707" fill-opacity="1"><g transform="translate(162.267841, 187.604181)"><g><path d="M 32.21875 -21.234375 L 30.234375 -20.984375 L 25.34375 0 L 20.84375 0 L 16.40625 -15.953125 L 16.3125 -15.953125 L 11.875 0 L 7.390625 0 L 2.453125 -20.984375 L 0.484375 -21.234375 L 0.484375 -24.15625 L 9.375 -24.15625 L 9.375 -21.234375 L 7.171875 -20.859375 L 9.9375 -7.609375 L 10.046875 -7.59375 L 14.5625 -24.15625 L 18.140625 -24.15625 L 22.703125 -7.59375 L 22.796875 -7.609375 L 25.546875 -20.859375 L 23.34375 -21.234375 L 23.34375 -24.15625 L 32.21875 -24.15625 Z M 32.21875 -21.234375 "/></g></g></g><g fill="#070707" fill-opacity="1"><g transform="translate(194.991074, 187.604181)"><g><path d="M 0.921875 -21.234375 L 0.921875 -24.15625 L 10.9375 -24.15625 L 10.9375 -21.234375 L 8.34375 -20.75 L 8.34375 -13.765625 L 18.203125 -13.765625 L 18.203125 -20.75 L 15.609375 -21.234375 L 15.609375 -24.15625 L 25.625 -24.15625 L 25.625 -21.234375 L 23.03125 -20.75 L 23.03125 -3.40625 L 25.625 -2.90625 L 25.625 0 L 15.609375 0 L 15.609375 -2.90625 L 18.203125 -3.40625 L 18.203125 -10.046875 L 8.34375 -10.046875 L 8.34375 -3.40625 L 10.9375 -2.90625 L 10.9375 0 L 0.921875 0 L 0.921875 -2.90625 L 3.5 -3.40625 L 3.5 -20.75 Z M 0.921875 -21.234375 "/></g></g></g><g fill="#070707" fill-opacity="1"><g transform="translate(221.557959, 187.604181)"><g><path d="M 9.734375 -21.234375 L 7.765625 -20.953125 L 11.515625 -13.03125 L 11.609375 -13.03125 L 15.359375 -20.953125 L 13.40625 -21.234375 L 13.40625 -24.15625 L 22.546875 -24.15625 L 22.546875 -21.234375 L 20.5 -20.90625 L 13.921875 -8.5 L 13.921875 -3.40625 L 16.515625 -2.90625 L 16.515625 0 L 6.5 0 L 6.5 -2.90625 L 9.09375 -3.40625 L 9.09375 -8.75 L 2.640625 -20.90625 L 0.59375 -21.234375 L 0.59375 -24.15625 L 9.734375 -24.15625 Z M 9.734375 -21.234375 "/></g></g></g><g fill="#070707" fill-opacity="1"><g transform="translate(244.756276, 187.604181)"><g/></g></g><g fill="#070707" fill-opacity="1"><g transform="translate(253.08643, 187.604181)"><g><path d="M 25.625 -24.15625 L 25.625 -21.234375 L 23.03125 -20.75 L 23.03125 0 L 18.203125 0 L 8.453125 -16.265625 L 8.34375 -16.25 L 8.34375 -3.40625 L 10.9375 -2.90625 L 10.9375 0 L 0.921875 0 L 0.921875 -2.90625 L 3.5 -3.40625 L 3.5 -20.75 L 0.921875 -21.234375 L 0.921875 -24.15625 L 8.34375 -24.15625 L 18.109375 -7.90625 L 18.203125 -7.921875 L 18.203125 -20.75 L 15.609375 -21.234375 L 15.609375 -24.15625 Z M 25.625 -24.15625 "/></g></g></g><g fill="#070707" fill-opacity="1"><g transform="translate(279.33803, 187.604181)"><g><path d="M 23.015625 -11.890625 C 23.015625 -8.359375 22 -5.4375 19.96875 -3.125 C 17.945312 -0.8125 15.300781 0.34375 12.03125 0.34375 C 8.769531 0.34375 6.132812 -0.8125 4.125 -3.125 C 2.113281 -5.4375 1.109375 -8.359375 1.109375 -11.890625 L 1.109375 -12.265625 C 1.109375 -15.785156 2.109375 -18.707031 4.109375 -21.03125 C 6.117188 -23.351562 8.753906 -24.515625 12.015625 -24.515625 C 15.285156 -24.515625 17.9375 -23.351562 19.96875 -21.03125 C 22 -18.707031 23.015625 -15.785156 23.015625 -12.265625 Z M 18.1875 -12.296875 C 18.1875 -14.796875 17.664062 -16.820312 16.625 -18.375 C 15.582031 -19.9375 14.046875 -20.71875 12.015625 -20.71875 C 9.972656 -20.71875 8.453125 -19.941406 7.453125 -18.390625 C 6.453125 -16.847656 5.953125 -14.816406 5.953125 -12.296875 L 5.953125 -11.890625 C 5.953125 -9.347656 6.457031 -7.300781 7.46875 -5.75 C 8.488281 -4.195312 10.007812 -3.421875 12.03125 -3.421875 C 14.070312 -3.421875 15.609375 -4.195312 16.640625 -5.75 C 17.671875 -7.300781 18.1875 -9.347656 18.1875 -11.890625 Z M 18.1875 -12.296875 "/></g></g></g><g fill="#070707" fill-opacity="1"><g transform="translate(303.366044, 187.604181)"><g><path d="M 22.203125 -24.15625 L 22.203125 -17.71875 L 18.484375 -17.71875 L 18.28125 -20.421875 L 13.84375 -20.421875 L 13.84375 -3.40625 L 16.421875 -2.90625 L 16.421875 0 L 6.40625 0 L 6.40625 -2.90625 L 9 -3.40625 L 9 -20.421875 L 4.5625 -20.421875 L 4.359375 -17.71875 L 0.65625 -17.71875 L 0.65625 -24.15625 Z M 22.203125 -24.15625 "/></g></g></g><g fill="#070707" fill-opacity="1"><g transform="translate(162.865497, 214.874619)"><g><path d="M 0.640625 -1.46875 L 1.890625 -1.640625 L 7.796875 -16.90625 L 9.765625 -16.90625 L 15.578125 -1.640625 L 16.8125 -1.46875 L 16.8125 0 L 11.953125 0 L 11.953125 -1.46875 L 13.234375 -1.6875 L 12.125 -4.796875 L 5.359375 -4.796875 L 4.203125 -1.6875 L 5.484375 -1.46875 L 5.484375 0 L 0.640625 0 Z M 6.0625 -6.71875 L 11.421875 -6.71875 L 8.796875 -13.96875 L 8.734375 -13.96875 Z M 6.0625 -6.71875 "/></g></g></g><g fill="#070707" fill-opacity="1"><g transform="translate(180.280542, 214.874619)"><g><path d="M 7.90625 -16.90625 C 10.113281 -16.90625 11.890625 -16.222656 13.234375 -14.859375 C 14.578125 -13.503906 15.25 -11.753906 15.25 -9.609375 L 15.25 -7.296875 C 15.25 -5.128906 14.578125 -3.367188 13.234375 -2.015625 C 11.890625 -0.671875 10.113281 0 7.90625 0 L 0.828125 0 L 0.828125 -1.46875 L 2.71875 -1.78125 L 2.71875 -15.109375 L 0.828125 -15.4375 L 0.828125 -16.90625 Z M 5 -15.109375 L 5 -1.78125 L 7.90625 -1.78125 C 9.46875 -1.78125 10.695312 -2.296875 11.59375 -3.328125 C 12.5 -4.359375 12.953125 -5.679688 12.953125 -7.296875 L 12.953125 -9.625 C 12.953125 -11.21875 12.5 -12.53125 11.59375 -13.5625 C 10.695312 -14.59375 9.46875 -15.109375 7.90625 -15.109375 Z M 5 -15.109375 "/></g></g></g><g fill="#070707" fill-opacity="1"><g transform="translate(196.755181, 214.874619)"><g><path d="M 5.890625 -15.4375 L 4.34375 -15.1875 L 8.125 -4.203125 L 8.515625 -2.875 L 8.578125 -2.875 L 8.96875 -4.203125 L 12.734375 -15.203125 L 11.21875 -15.4375 L 11.21875 -16.90625 L 16.546875 -16.90625 L 16.546875 -15.4375 L 15.1875 -15.25 L 9.515625 0 L 7.5625 0 L 1.890625 -15.25 L 0.546875 -15.4375 L 0.546875 -16.90625 L 5.890625 -16.90625 Z M 5.890625 -15.4375 "/></g></g></g><g fill="#070707" fill-opacity="1"><g transform="translate(213.821926, 214.874619)"><g><path d="M 0.828125 0 L 0.828125 -1.46875 L 2.71875 -1.78125 L 2.71875 -15.109375 L 0.828125 -15.4375 L 0.828125 -16.90625 L 13.8125 -16.90625 L 13.8125 -12.84375 L 11.84375 -12.84375 L 11.65625 -15.109375 L 5 -15.109375 L 5 -9.640625 L 11.46875 -9.640625 L 11.46875 -7.84375 L 5 -7.84375 L 5 -1.78125 L 11.796875 -1.78125 L 11.984375 -4.046875 L 13.9375 -4.046875 L 13.9375 0 Z M 0.828125 0 "/></g></g></g><g fill="#070707" fill-opacity="1"><g transform="translate(228.984625, 214.874619)"><g><path d="M 17.390625 -16.90625 L 17.390625 -15.4375 L 15.484375 -15.109375 L 15.484375 0 L 13.203125 0 L 5.078125 -13.046875 L 5 -13.03125 L 5 -1.78125 L 6.890625 -1.46875 L 6.890625 0 L 0.828125 0 L 0.828125 -1.46875 L 2.71875 -1.78125 L 2.71875 -15.109375 L 0.828125 -15.4375 L 0.828125 -16.90625 L 5 -16.90625 L 13.140625 -3.859375 L 13.203125 -3.890625 L 13.203125 -15.109375 L 11.3125 -15.4375 L 11.3125 -16.90625 Z M 17.390625 -16.90625 "/></g></g></g><g fill="#070707" fill-opacity="1"><g transform="translate(247.096273, 214.874619)"><g><path d="M 14.484375 -16.90625 L 14.484375 -13.171875 L 12.53125 -13.171875 L 12.359375 -15.109375 L 8.609375 -15.109375 L 8.609375 -1.78125 L 10.5 -1.46875 L 10.5 0 L 4.421875 0 L 4.421875 -1.46875 L 6.3125 -1.78125 L 6.3125 -15.109375 L 2.546875 -15.109375 L 2.390625 -13.171875 L 0.421875 -13.171875 L 0.421875 -16.90625 Z M 14.484375 -16.90625 "/></g></g></g><g fill="#070707" fill-opacity="1"><g transform="translate(262.003552, 214.874619)"><g><path d="M 6.765625 -16.90625 L 6.765625 -15.4375 L 4.875 -15.109375 L 4.875 -5.453125 C 4.875 -4.171875 5.238281 -3.195312 5.96875 -2.53125 C 6.695312 -1.875 7.65625 -1.546875 8.84375 -1.546875 C 10.101562 -1.546875 11.113281 -1.875 11.875 -2.53125 C 12.644531 -3.1875 13.03125 -4.160156 13.03125 -5.453125 L 13.03125 -15.109375 L 11.140625 -15.4375 L 11.140625 -16.90625 L 17.203125 -16.90625 L 17.203125 -15.4375 L 15.3125 -15.109375 L 15.3125 -5.453125 C 15.3125 -3.609375 14.710938 -2.195312 13.515625 -1.21875 C 12.328125 -0.238281 10.769531 0.25 8.84375 0.25 C 6.976562 0.25 5.46875 -0.238281 4.3125 -1.21875 C 3.164062 -2.195312 2.59375 -3.609375 2.59375 -5.453125 L 2.59375 -15.109375 L 0.703125 -15.4375 L 0.703125 -16.90625 Z M 6.765625 -16.90625 "/></g></g></g><g fill="#070707" fill-opacity="1"><g transform="translate(279.894615, 214.874619)"><g><path d="M 8.25 -16.890625 C 10.09375 -16.890625 11.503906 -16.476562 12.484375 -15.65625 C 13.460938 -14.84375 13.953125 -13.6875 13.953125 -12.1875 C 13.953125 -11.375 13.722656 -10.648438 13.265625 -10.015625 C 12.816406 -9.378906 12.164062 -8.878906 11.3125 -8.515625 C 12.226562 -8.210938 12.890625 -7.71875 13.296875 -7.03125 C 13.703125 -6.351562 13.90625 -5.515625 13.90625 -4.515625 L 13.90625 -3.15625 C 13.90625 -2.632812 13.972656 -2.25 14.109375 -2 C 14.242188 -1.757812 14.460938 -1.613281 14.765625 -1.5625 L 15.3125 -1.5 L 15.3125 0 L 14.078125 0 C 13.191406 0 12.5625 -0.304688 12.1875 -0.921875 C 11.8125 -1.546875 11.625 -2.300781 11.625 -3.1875 L 11.625 -4.5 C 11.625 -5.414062 11.351562 -6.148438 10.8125 -6.703125 C 10.28125 -7.265625 9.566406 -7.546875 8.671875 -7.546875 L 5 -7.546875 L 5 -1.78125 L 6.890625 -1.46875 L 6.890625 0 L 0.828125 0 L 0.828125 -1.46875 L 2.71875 -1.78125 L 2.71875 -15.109375 L 0.828125 -15.4375 L 0.828125 -16.890625 Z M 5 -9.34375 L 8.015625 -9.34375 C 9.285156 -9.34375 10.210938 -9.585938 10.796875 -10.078125 C 11.378906 -10.566406 11.671875 -11.28125 11.671875 -12.21875 C 11.671875 -13.101562 11.390625 -13.804688 10.828125 -14.328125 C 10.273438 -14.847656 9.414062 -15.109375 8.25 -15.109375 L 5 -15.109375 Z M 5 -9.34375 "/></g></g></g><g fill="#070707" fill-opacity="1"><g transform="translate(295.986117, 214.874619)"><g><path d="M 0.828125 0 L 0.828125 -1.46875 L 2.71875 -1.78125 L 2.71875 -15.109375 L 0.828125 -15.4375 L 0.828125 -16.90625 L 13.8125 -16.90625 L 13.8125 -12.84375 L 11.84375 -12.84375 L 11.65625 -15.109375 L 5 -15.109375 L 5 -9.640625 L 11.46875 -9.640625 L 11.46875 -7.84375 L 5 -7.84375 L 5 -1.78125 L 11.796875 -1.78125 L 11.984375 -4.046875 L 13.9375 -4.046875 L 13.9375 0 Z M 0.828125 0 "/></g></g></g><g fill="#070707" fill-opacity="1"><g transform="translate(311.148817, 214.874619)"><g><path d="M 13.0625 -11.90625 L 11.328125 -11.90625 L 10.90625 -14.328125 C 10.550781 -14.617188 10.082031 -14.859375 9.5 -15.046875 C 8.925781 -15.242188 8.253906 -15.34375 7.484375 -15.34375 C 6.273438 -15.34375 5.34375 -15.085938 4.6875 -14.578125 C 4.039062 -14.066406 3.71875 -13.394531 3.71875 -12.5625 C 3.71875 -11.832031 4.046875 -11.21875 4.703125 -10.71875 C 5.367188 -10.226562 6.441406 -9.796875 7.921875 -9.421875 C 9.703125 -8.984375 11.050781 -8.332031 11.96875 -7.46875 C 12.894531 -6.613281 13.359375 -5.550781 13.359375 -4.28125 C 13.359375 -2.914062 12.800781 -1.816406 11.6875 -0.984375 C 10.582031 -0.160156 9.132812 0.25 7.34375 0.25 C 6.039062 0.25 4.882812 0.0351562 3.875 -0.390625 C 2.863281 -0.816406 2.039062 -1.375 1.40625 -2.0625 L 1.40625 -5.21875 L 3.125 -5.21875 L 3.5625 -2.78125 C 4.007812 -2.414062 4.535156 -2.117188 5.140625 -1.890625 C 5.753906 -1.660156 6.488281 -1.546875 7.34375 -1.546875 C 8.488281 -1.546875 9.394531 -1.785156 10.0625 -2.265625 C 10.738281 -2.753906 11.078125 -3.421875 11.078125 -4.265625 C 11.078125 -5.035156 10.785156 -5.679688 10.203125 -6.203125 C 9.628906 -6.722656 8.601562 -7.164062 7.125 -7.53125 C 5.34375 -7.945312 3.945312 -8.566406 2.9375 -9.390625 C 1.925781 -10.222656 1.421875 -11.269531 1.421875 -12.53125 C 1.421875 -13.851562 1.984375 -14.953125 3.109375 -15.828125 C 4.234375 -16.710938 5.691406 -17.15625 7.484375 -17.15625 C 8.671875 -17.15625 9.75 -16.953125 10.71875 -16.546875 C 11.695312 -16.140625 12.476562 -15.644531 13.0625 -15.0625 Z M 13.0625 -11.90625 "/></g></g></g></svg>