<svg xmlns="http://www.w3.org/2000/svg" xmlns:xlink="http://www.w3.org/1999/xlink" width="500" zoomAndPan="magnify" viewBox="0 0 375 374.999991" height="500" preserveAspectRatio="xMidYMid meet" version="1.0"><defs><g/><clipPath id="dd43905e57"><path d="M 37.539062 94.6875 L 337.453125 94.6875 L 337.453125 280.320312 L 37.539062 280.320312 Z M 37.539062 94.6875 " clip-rule="nonzero"/></clipPath></defs><rect x="-37.5" width="450" fill="#ffffff" y="-37.499999" height="449.999989" fill-opacity="1"/><rect x="-37.5" width="450" fill="#f2f3f4" y="-37.499999" height="449.999989" fill-opacity="1"/><g clip-path="url(#dd43905e57)"><path fill="#070707" d="M 38.179688 274.167969 L 105.859375 171.929688 C 107.320312 169.71875 110.5625 169.652344 112.230469 171.800781 L 123.578125 186.425781 C 124.371094 187.445312 125.90625 187.433594 126.628906 186.398438 L 189.253906 96.316406 C 190.785156 94.117188 194.074219 94.152344 195.671875 96.382812 L 241.949219 161.003906 C 242.757812 162.136719 244.449219 162.082031 245.125 160.898438 L 255.042969 143.59375 C 256.535156 140.992188 260.332031 141.066406 261.859375 143.726562 L 336.914062 274.507812 C 338.414062 277.125 336.605469 280.320312 333.621094 280.320312 L 41.574219 280.320312 C 38.414062 280.320312 36.457031 276.773438 38.179688 274.167969 " fill-opacity="1" fill-rule="nonzero"/></g><g fill="#070707" fill-opacity="1"><g transform="translate(185.390618, 193.124987)"><g><path d="M 2.109375 0.078125 C 1.804688 0.078125 1.566406 -0.00390625 1.390625 -0.171875 C 1.222656 -0.335938 1.140625 -0.5625 1.140625 -0.84375 C 1.140625 -1.113281 1.222656 -1.332031 1.390625 -1.5 C 1.566406 -1.675781 1.804688 -1.765625 2.109375 -1.765625 C 2.410156 -1.765625 2.644531 -1.679688 2.8125 -1.515625 C 2.988281 -1.347656 3.078125 -1.128906 3.078125 -0.859375 C 3.078125 -0.578125 2.988281 -0.347656 2.8125 -0.171875 C 2.632812 -0.00390625 2.398438 0.078125 2.109375 0.078125 Z M 2.109375 0.078125 "/></g></g></g></svg>