<svg width="80" height="80" viewBox="0 0 80 80" fill="none" xmlns="http://www.w3.org/2000/svg">
<path d="M59.4408 20.16L48.4408 18.2L34.6408 15.8L28.5608 14.72L21.8008 53.2L52.6408 58.64L59.4408 20.16Z" fill="white"/>
<path d="M34.6408 15.8L28.5608 14.72L21.8008 53.2L52.6408 58.64L54.6808 47.16C54.6808 47.16 44.7208 48.36 37.4408 40.76C30.1208 33.12 30.0808 24.08 34.6408 15.8Z" fill="#202020"/>
<path d="M55.0006 45.32C55.0006 45.32 46.2806 45.2 41.9206 36.56C35.9206 24.6 48.4006 18.2 48.4006 18.2L59.4806 20.16L55.0006 45.32Z" fill="#202020"/>
<path d="M29.9609 46.2399L28.2409 45.9199L24.9609 49.1599L26.5609 49.4399L27.2009 48.7999L29.9209 49.2799L30.2409 50.1199L31.9209 50.3999L29.9609 46.2399ZM27.7209 48.2399L28.9209 46.9599L29.5609 48.5999L27.7209 48.2399Z" fill="white"/>
<path d="M32.8817 46.7598L38.8417 47.7998L38.7217 48.4798L36.5217 48.0798L36.0017 51.1198L34.4417 50.8798L35.0017 47.7998L32.7617 47.3998L32.8817 46.7598Z" fill="white"/>
<path d="M45.3637 49.32C44.8437 48.92 44.0837 48.64 43.0437 48.44C42.0037 48.24 41.1637 48.24 40.5637 48.44C39.7637 48.64 39.2837 49.08 39.1637 49.76C39.0437 50.44 39.3237 51 40.0037 51.48C40.5237 51.88 41.2837 52.16 42.3237 52.36C43.3637 52.56 44.2037 52.56 44.8037 52.36C45.6037 52.12 46.0837 51.68 46.2037 51.04C46.3237 50.36 46.0437 49.76 45.3637 49.32ZM41.0437 51.12C40.7237 50.84 40.6037 50.48 40.6837 50.04C40.7637 49.64 41.0037 49.32 41.4037 49.16C41.8037 49 42.3237 48.96 42.9237 49.08C43.5237 49.2 44.0037 49.4 44.3237 49.68C44.6437 49.96 44.7637 50.32 44.6837 50.76C44.6037 51.16 44.3637 51.48 43.9637 51.64C43.5637 51.8 43.0437 51.84 42.4437 51.72C41.8437 51.6 41.3637 51.4 41.0437 51.12Z" fill="white"/>
<path d="M47.043 53.1199L47.683 49.3999L49.243 49.6799L48.683 52.7199L52.323 53.3599L52.203 54.0399L47.043 53.1199Z" fill="white"/>
<path d="M34.0008 75.1199C14.6808 71.7199 1.76085 53.2399 5.16085 33.9199C8.56085 14.5999 27.0408 1.6399 46.3208 5.0799C65.6408 8.4799 78.5608 26.9599 75.1609 46.2799C71.8008 65.5599 53.3208 78.5199 34.0008 75.1199ZM2.76085 33.4799C-0.879153 54.1199 12.9608 73.8799 33.6008 77.5199C54.2408 81.1599 73.9608 67.3199 77.6009 46.6799C78.0008 44.4399 78.2009 42.2399 78.2009 40.0399C78.2009 21.9599 65.2008 5.8399 46.8008 2.5999C26.1608 -1.0001 6.40085 12.8399 2.76085 33.4799Z" fill="#202020"/>
<path d="M11.6002 47.1999C11.6802 47.4399 11.7602 47.7199 11.8802 47.9199C12.2802 48.5999 13.0002 48.6799 13.6802 48.5199C14.6002 48.2799 15.0402 47.6399 14.8802 47.0799L14.6802 46.3999L11.6002 47.1999ZM7.60016 48.2799C7.56016 47.9999 7.52016 47.7199 7.44016 47.3999C7.36016 47.1199 7.24016 46.8399 7.16016 46.5599L14.8802 44.4399L15.6402 47.1999C16.0802 48.7599 15.6802 49.7999 14.4002 50.1199C12.4002 50.6799 11.5602 49.3199 11.0002 47.2799L7.60016 48.2799Z" fill="#202020"/>
<path d="M14.4008 54.12C14.9208 55.24 15.7208 55.48 16.7608 54.84C16.9208 54.76 17.0408 54.64 17.2408 54.48C18.0008 53.84 17.4408 53.12 17.0808 52.52L14.4008 54.12ZM16.7608 50.72L18.0008 52.88C18.2808 53.36 18.7208 54.08 18.7608 54.64C18.8008 55.4 18.5208 55.96 17.8408 56.36C16.8408 56.92 15.8408 56.68 15.1208 55.84C14.4808 56.96 13.9208 58.12 13.3208 59.28L12.9208 60.04C12.7608 59.72 12.6008 59.4 12.4408 59.08C12.2808 58.76 12.0408 58.48 11.8408 58.2L13.2408 55.76C13.4408 55.44 13.7208 54.88 13.9608 54.44L13.9208 54.36L10.6808 56.24C10.5608 55.96 10.4408 55.72 10.2808 55.44C10.1208 55.2 9.96078 54.96 9.80078 54.72L16.7608 50.72Z" fill="#202020"/>
<path d="M18.6014 60.9599C17.6014 62.1199 17.0414 63.7599 18.3614 64.9199C19.7214 66.1199 21.4814 65.2799 22.7614 63.8399C23.7614 62.7199 24.3614 60.9599 23.0414 59.7999C21.8814 58.7199 20.3214 58.9999 18.6014 60.9599ZM17.8814 65.4399C15.9614 63.7599 15.6414 61.4399 17.3614 59.4399C18.8814 57.6799 21.4014 57.3999 23.6014 59.3199C26.1214 61.5199 25.2814 63.9199 24.1214 65.2799C22.6414 66.9999 20.0414 67.3199 17.8814 65.4399Z" fill="#202020"/>
<path d="M27.682 71.2799C27.442 71.1599 27.162 70.9999 26.922 70.8799C26.642 70.7599 26.362 70.6799 26.082 70.5999L28.922 63.9999C28.162 63.6799 27.442 63.4399 26.882 63.2799C26.962 63.1199 27.082 62.9999 27.122 62.8399C27.202 62.6799 27.202 62.5199 27.282 62.3599L32.802 64.7599C32.722 64.9199 32.602 65.0399 32.562 65.1999C32.482 65.3599 32.442 65.5199 32.402 65.6799C31.802 65.3199 31.202 64.9999 30.562 64.7199L27.682 71.2799Z" fill="#202020"/>
<path d="M38.3186 65.76C38.2786 65.92 38.1986 66.08 38.1986 66.24C38.1586 66.4 38.1586 66.6 38.1586 66.76C37.4786 66.56 36.7186 66.32 35.5186 66.16L35.1186 68.64L36.3186 68.84C36.8386 68.92 37.3186 68.96 37.7586 68.96C37.7186 69.12 37.6386 69.28 37.5986 69.44C37.5586 69.6 37.5586 69.76 37.5586 69.96C37.1586 69.84 36.6786 69.72 36.1586 69.6L34.9586 69.4L34.4786 72.32C35.6386 72.52 36.4386 72.6 37.1586 72.6C37.1186 72.76 37.0386 72.92 36.9986 73.08C36.9586 73.24 36.9586 73.4 36.9586 73.6L32.5586 72.84L33.8786 65L38.3186 65.76Z" fill="#202020"/>
<path d="M46.6828 71.8799L46.5228 72.9199C45.8428 73.3599 45.0428 73.5599 44.2828 73.6399C41.8028 73.8799 39.7628 72.5199 39.5228 70.1599C39.2428 67.1199 41.2028 65.5599 43.7228 65.2799C44.4828 65.1999 45.4428 65.3199 46.1628 65.6399C46.0828 66.0399 46.0828 66.4399 46.0028 66.8799H45.8428C45.3628 66.2799 44.5628 65.9199 43.8028 65.9999C41.8828 66.1999 41.2828 68.1199 41.4428 69.7999C41.6428 71.7999 42.7628 73.0799 44.5228 72.9199C45.2428 72.8399 46.0428 72.3999 46.5228 71.8399L46.6828 71.8799Z" fill="#202020"/>
<path d="M53.2787 71.0799C52.9987 71.1599 52.7188 71.2399 52.4388 71.3599C52.1588 71.4799 51.9188 71.5999 51.6388 71.7199L49.0387 65.0399C48.2787 65.3599 47.5987 65.6799 47.0787 65.9999C47.0387 65.8399 46.9987 65.6799 46.9587 65.5199C46.9187 65.3599 46.7988 65.2399 46.7188 65.0799L52.3187 62.8799C52.3587 63.0399 52.3988 63.1999 52.4388 63.3599C52.5188 63.5199 52.5987 63.6799 52.6787 63.7999C51.9987 63.9599 51.3187 64.1599 50.6787 64.3999L53.2787 71.0799Z" fill="#202020"/>
<path d="M56.9213 59.6001C57.0013 59.7601 57.0812 59.9201 57.1612 60.0401C57.2412 60.1601 57.4012 60.2801 57.4812 60.4001C56.8412 60.7201 56.1613 61.1201 55.2013 61.8401L56.6413 63.8801L57.6413 63.1601C58.0813 62.8401 58.4412 62.5601 58.7612 62.2401C58.8412 62.4001 58.9213 62.5601 59.0013 62.6801C59.0813 62.8001 59.2413 62.9201 59.3213 63.0401C58.9213 63.2401 58.5212 63.4801 58.0812 63.8001L57.0812 64.5201L58.8013 66.9601C59.7613 66.2801 60.3613 65.7601 60.9213 65.2801C61.0013 65.4401 61.0812 65.6001 61.1612 65.7201C61.2412 65.8401 61.4012 65.9601 61.4812 66.0801L57.8413 68.6401L53.2812 62.1601L56.9213 59.6001Z" fill="#202020"/>
<path d="M64.882 61.88L65.482 61.12C66.482 59.84 66.602 58.4 64.482 56.72C62.762 55.36 61.442 55.64 60.402 56.92L59.682 57.8L64.882 61.88ZM60.562 55.6C62.202 53.68 64.202 53.96 65.682 55.16C67.762 56.8 67.842 59.24 66.362 61.08L64.322 63.64L58.082 58.72L60.562 55.6Z" fill="#202020"/>
</svg>
