<?xml version="1.0" standalone="no"?>
<!DOCTYPE svg PUBLIC "-//W3C//DTD SVG 20010904//EN"
 "http://www.w3.org/TR/2001/REC-SVG-20010904/DTD/svg10.dtd">
<svg version="1.0" xmlns="http://www.w3.org/2000/svg"
 width="642.000000pt" height="558.000000pt" viewBox="0 0 642.000000 558.000000"
 preserveAspectRatio="xMidYMid meet">
<metadata>
Created by potrace 1.10, written by Peter Selinger 2001-2011
</metadata>
<g transform="translate(0.000000,558.000000) scale(0.100000,-0.100000)"
fill="#000000" stroke="none">
<path d="M5310 4710 l-235 -5 -3 -65 c-4 -77 8 -90 80 -90 32 0 50 -5 54 -14
3 -7 -24 -63 -59 -122 -35 -60 -97 -167 -137 -237 -40 -70 -77 -126 -82 -125
-9 3 -37 53 -170 308 -39 74 -75 141 -80 147 -19 23 -1 40 47 46 56 6 65 16
65 79 0 83 18 78 -261 78 -244 0 -249 0 -260 -21 -14 -28 -6 -118 12 -130 8
-5 32 -9 54 -9 51 0 56 -4 90 -65 15 -27 44 -79 65 -115 21 -36 48 -83 60
-105 12 -22 61 -107 108 -190 161 -285 143 -233 140 -396 l-3 -143 -70 -21
-70 -21 0 -70 0 -69 265 0 265 0 0 70 0 70 -62 20 c-34 11 -65 23 -69 27 -4 4
-6 76 -5 160 l2 153 86 150 c47 83 97 170 111 195 14 25 50 88 81 140 31 52
65 112 76 133 33 62 51 77 98 77 60 0 68 9 68 71 1 81 0 87 -13 90 -7 2 -119
2 -248 -1z"/>
<path d="M732 4697 c-16 -19 -9 -126 9 -138 8 -5 35 -9 61 -9 57 0 58 -2 92
-131 38 -146 106 -405 133 -504 13 -49 37 -139 53 -200 15 -60 38 -146 50
-190 12 -44 27 -100 34 -125 l11 -45 104 -3 c59 -1 109 2 114 7 11 11 42 104
186 551 113 349 121 372 134 367 6 -2 19 -28 28 -58 10 -30 38 -117 62 -194
144 -450 178 -556 194 -608 21 -68 22 -69 153 -65 l95 3 17 65 c41 159 78 301
98 375 12 44 35 130 51 190 15 61 40 153 54 205 14 52 39 149 56 215 17 66 35
125 40 131 5 6 32 14 60 16 28 3 55 12 60 19 11 18 11 110 1 127 -7 9 -64 12
-253 10 l-244 -3 -3 -65 c-4 -77 8 -90 77 -90 77 0 77 -1 43 -141 -17 -68 -40
-162 -51 -209 -11 -47 -38 -161 -61 -255 -22 -93 -43 -180 -45 -192 -8 -34
-32 -28 -43 10 -24 75 -137 432 -177 557 -24 74 -59 187 -80 250 -20 63 -41
120 -47 127 -7 9 -38 13 -94 13 -69 0 -85 -3 -92 -17 -5 -10 -71 -216 -147
-458 -158 -508 -154 -497 -169 -492 -10 3 -21 48 -110 417 -21 85 -49 202 -62
258 -14 57 -23 110 -20 118 4 9 21 14 54 14 72 0 84 13 80 90 l-3 65 -246 3
c-196 2 -249 0 -257 -11z"/>
<path d="M2794 4684 c-9 -37 2 -115 17 -125 8 -5 32 -9 55 -9 80 0 75 35 75
-514 0 -269 -4 -493 -8 -497 -4 -4 -37 -16 -73 -26 l-65 -19 -3 -64 c-2 -44 1
-66 10 -71 7 -5 126 -9 264 -9 205 0 254 3 263 14 7 8 11 38 9 72 l-3 58 -70
21 -70 21 -3 184 c-1 101 2 188 6 192 9 9 561 13 569 4 5 -4 6 -377 1 -380 -2
-1 -32 -11 -68 -22 l-65 -20 0 -70 0 -69 265 0 265 0 0 70 0 69 -70 21 -70 21
-2 490 c-2 276 1 495 6 503 5 8 32 16 65 19 31 2 60 10 66 17 6 7 10 42 8 77
l-3 63 -265 0 -265 0 -3 -69 c-3 -79 2 -86 64 -86 73 0 73 -1 75 -218 0 -107
-1 -196 -4 -198 -7 -7 -556 -6 -567 1 -12 8 -14 374 -1 393 4 7 33 17 64 21
32 4 60 11 64 15 12 11 13 119 2 133 -9 10 -68 13 -270 13 l-259 0 -6 -26z"/>
<path d="M2645 2193 c-166 -51 -283 -152 -359 -307 -65 -135 -78 -196 -79
-366 -1 -161 14 -246 64 -357 53 -119 158 -234 255 -282 27 -13 63 -30 79 -39
47 -26 333 -24 395 2 108 45 139 65 206 131 84 83 133 166 170 290 24 79 27
108 28 235 1 176 -15 255 -80 387 -105 212 -286 324 -524 322 -64 -1 -125 -7
-155 -16z m235 -187 c75 -18 112 -38 160 -89 83 -86 123 -220 122 -407 0 -200
-44 -334 -135 -416 -72 -65 -123 -84 -222 -84 -163 0 -270 86 -327 262 -30 94
-37 330 -13 430 43 175 125 272 260 306 56 14 92 13 155 -2z"/>
<path d="M5070 2194 c-155 -51 -230 -128 -259 -263 -16 -77 -10 -81 113 -81
55 0 106 4 112 8 6 4 14 23 18 43 14 76 118 127 215 105 86 -19 134 -83 132
-175 -1 -105 -38 -168 -171 -290 -120 -112 -140 -146 -143 -244 l-2 -72 120 0
120 0 5 60 c6 71 18 90 130 200 124 122 163 185 181 295 33 196 -66 351 -265
414 -64 21 -243 20 -306 0z"/>
<path d="M1558 2189 c-16 -10 -13 -140 4 -150 7 -5 36 -9 63 -9 29 0 60 -7 73
-16 l22 -15 0 -380 c0 -208 -3 -379 -7 -379 -19 1 -37 24 -120 157 -95 154
-342 545 -410 652 -24 36 -47 75 -52 86 -24 53 -34 56 -237 53 l-189 -3 -3
-63 c-4 -77 6 -92 62 -92 82 0 77 36 77 -514 0 -269 -3 -491 -6 -495 -4 -3
-34 -15 -68 -26 l-62 -20 0 -70 0 -70 265 0 265 0 0 70 0 70 -80 19 c-44 10
-82 22 -85 26 -9 14 0 760 9 760 9 0 75 -98 232 -342 150 -233 186 -288 254
-393 39 -60 86 -134 104 -163 l33 -53 117 3 116 3 5 587 c3 322 8 589 12 593
3 4 32 10 63 14 31 4 61 14 66 22 11 17 12 109 1 126 -6 9 -76 13 -261 15
-139 2 -258 0 -263 -3z"/>
<path d="M3506 2174 c-8 -20 -8 -298 0 -318 5 -13 23 -16 90 -16 96 0 104 6
104 87 0 26 4 54 8 61 7 9 41 12 138 10 l129 -3 0 -489 0 -490 -70 -21 -70
-21 0 -69 0 -70 265 0 265 0 0 70 0 69 -70 22 -70 22 0 488 0 489 135 0 134 0
11 -73 c6 -41 16 -77 22 -80 6 -4 46 -5 89 -2 l79 5 0 170 0 170 -591 3 c-533
2 -592 1 -598 -14z"/>
<path d="M5082 1038 c-8 -8 -12 -46 -12 -105 0 -110 -7 -105 150 -101 l105 3
3 85 c5 137 11 130 -121 130 -75 0 -117 -4 -125 -12z"/>
</g>
</svg>
