<?xml version="1.0" standalone="no"?>
<!DOCTYPE svg PUBLIC "-//W3C//DTD SVG 20010904//EN"
 "http://www.w3.org/TR/2001/REC-SVG-20010904/DTD/svg10.dtd">
<svg version="1.0" xmlns="http://www.w3.org/2000/svg"
 width="525.000000pt" height="282.000000pt" viewBox="0 0 525.000000 282.000000"
 preserveAspectRatio="xMidYMid meet">
<g transform="translate(0.000000,282.000000) scale(0.100000,-0.100000)"
fill="#1d1d1c" stroke="none">
<path d="M247 2505 c-4 -9 -7 -522 -7 -1140 0 -1015 2 -1123 16 -1129 9 -3
239 -6 512 -6 580 0 607 2 795 77 23 9 49 23 58 30 8 7 21 13 28 13 6 0 47 35
90 78 128 126 191 285 191 475 -1 234 -124 423 -342 529 -38 17 -68 35 -68 39
0 4 21 20 48 35 228 133 308 443 182 709 -33 71 -133 184 -181 205 -13 5 -31
14 -39 19 -21 13 -77 36 -135 56 -45 16 -108 18 -596 23 -507 4 -546 3 -552
-13z m1068 -251 c106 -42 179 -109 221 -204 28 -65 27 -227 -2 -290 -51 -110
-166 -193 -300 -219 -86 -16 -716 -15 -732 1 -18 18 -17 724 1 732 6 3 181 4
387 2 343 -3 379 -5 425 -22z m-15 -974 c153 -22 292 -115 345 -232 58 -129
31 -319 -58 -417 -28 -30 -123 -101 -136 -101 -5 0 -22 -6 -38 -14 -80 -40
-149 -46 -530 -46 -274 0 -372 3 -381 12 -18 18 -17 794 1 801 20 9 737 6 797
-3z"/>
<path d="M2185 2509 c-4 -5 -2 -22 4 -37 9 -22 439 -1445 471 -1557 5 -16 18
-61 30 -100 12 -38 25 -83 30 -100 5 -16 39 -131 77 -255 l69 -225 89 -3 c50
-1 95 1 102 5 6 5 43 87 81 183 39 96 100 247 137 335 36 88 102 250 146 360
207 515 206 512 224 494 14 -13 106 -222 177 -399 16 -41 78 -190 138 -330 59
-140 143 -338 185 -440 43 -102 82 -191 87 -197 7 -9 41 -13 103 -13 92 0 93
0 104 28 9 22 168 544 201 657 5 17 59 194 120 395 61 201 156 513 211 695
105 347 113 374 137 442 24 70 19 73 -111 73 -84 0 -118 -4 -126 -13 -9 -12
-43 -119 -96 -302 -8 -27 -55 -187 -105 -355 -50 -168 -97 -327 -105 -355 -8
-27 -49 -165 -91 -305 -63 -213 -116 -405 -148 -542 -12 -52 -32 -30 -65 70
-18 53 -74 203 -126 332 -51 129 -155 390 -230 580 -75 190 -142 351 -147 358
-8 9 -40 12 -117 10 l-106 -3 -153 -385 c-184 -461 -230 -578 -272 -690 -17
-47 -37 -98 -44 -115 -7 -16 -23 -67 -36 -113 -27 -93 -48 -106 -63 -37 -29
139 -67 287 -123 475 -36 118 -71 238 -79 265 -8 28 -34 118 -58 200 -25 83
-75 254 -111 380 -130 444 -147 500 -156 523 -9 21 -15 22 -129 22 -74 0 -122
-4 -126 -11z"/>
</g>
</svg>
