            <svg
              version="1.0"
              width="70%"
              height="70%"
              viewBox="0 0 120.000000 134.000000"
              preserveAspectRatio="xMidYMid meet"
              xmlns="http://www.w3.org/2000/svg">
              <g
                transform="translate(0.000000,134.000000) scale(0.100000,-0.100000)">
                <path
                  d="M 930 1270 C 917 1222 867 1162 824 1144 C 807 1137 759 1128 716 1124 L 639 1117 L 642 1046 L 645 975 L 770 974 L 895 974 C 895 974 902 791 902 585 L 900 210 L 876 210 C 857 210 799 264 633 435 L 415 659 L 417 517 L 418 375 L 570 218 L 723 60 L 921 60 L 1120 60 L 1120 685 L 1120 1310 L 1030 1310 L 941 1310 L 930 1270 Z"
                  style="
                    fill: #FFFFFF;
                    stroke: #FFFFFF;
                  " />
                <path
                  d="M 60 570 L 60 60 L 175 60 L 291 60 L 288 505 C 286 805 288 950 295 950 C 301 950 411 844 540 715 C 669 586 775 480 777 480 C 779 480 780 546 780 627 L 780 774 L 628 927 L 476 1080 L 268 1080 L 60 1080 L 60 570 Z"
                  style="
                    fill: #FFFFFF;
                    stroke: #FFFFFF;
                  " />
              </g>
            </svg>