<?xml version="1.0" standalone="no"?>
<!DOCTYPE svg PUBLIC "-//W3C//DTD SVG 20010904//EN"
 "http://www.w3.org/TR/2001/REC-SVG-20010904/DTD/svg10.dtd">
<svg version="1.0" xmlns="http://www.w3.org/2000/svg"
 width="867.000000pt" height="540.000000pt" viewBox="0 0 867.000000 540.000000"
 preserveAspectRatio="xMidYMid meet">
<metadata>
Created by potrace 1.10, written by Peter Selinger 2001-2011
</metadata>
<g transform="translate(0.000000,540.000000) scale(0.100000,-0.100000)"
fill="#000000" stroke="none">
<path d="M4405 5301 c-25 -11 -45 -33 -98 -109 -23 -34 -65 -94 -93 -134 -28
-40 -71 -102 -95 -138 -25 -36 -77 -110 -115 -165 -39 -55 -100 -143 -136
-195 -36 -52 -114 -165 -173 -250 -60 -85 -129 -184 -154 -220 -83 -120 -142
-205 -198 -285 -31 -44 -90 -129 -130 -189 -41 -59 -93 -134 -116 -165 -23
-31 -69 -96 -103 -146 -72 -107 -128 -188 -214 -310 -35 -49 -85 -122 -112
-161 -78 -114 -110 -148 -135 -140 -12 4 -46 37 -75 74 -29 37 -55 69 -58 72
-3 3 -34 43 -70 90 -36 47 -73 93 -82 102 -10 10 -18 23 -18 28 0 6 -23 33
-51 60 -45 44 -56 50 -94 50 -37 0 -47 -5 -80 -42 -20 -24 -79 -108 -131 -188
-51 -80 -104 -158 -116 -174 -21 -28 -37 -52 -55 -86 -4 -8 -30 -48 -58 -88
-67 -99 -83 -123 -96 -149 -7 -13 -15 -23 -19 -23 -3 0 -17 -20 -29 -45 -12
-25 -26 -45 -31 -45 -4 0 -10 -8 -14 -17 -6 -20 -5 -17 -120 -190 -260 -389
-312 -466 -321 -481 -12 -21 -271 -412 -404 -610 -53 -79 -100 -151 -106 -160
-5 -9 -22 -33 -36 -52 -14 -19 -29 -42 -32 -50 -8 -17 -13 -25 -114 -177 -40
-59 -76 -113 -81 -119 -5 -6 -22 -30 -37 -55 -15 -24 -52 -80 -81 -124 -30
-45 -56 -95 -60 -112 -8 -40 16 -85 59 -112 l34 -21 4153 0 4153 0 33 21 c42
26 54 47 54 96 0 26 -10 55 -31 88 -17 27 -35 58 -40 69 -5 12 -18 35 -29 51
-10 17 -29 50 -42 75 -13 25 -34 61 -47 80 -12 19 -27 44 -32 55 -5 11 -18 34
-28 50 -11 17 -30 50 -42 75 -12 25 -28 52 -34 60 -7 8 -27 42 -45 75 -18 33
-38 67 -44 75 -7 8 -22 35 -35 60 -12 25 -38 70 -56 100 -19 30 -46 78 -60
105 -14 28 -35 64 -45 80 -10 17 -29 50 -42 75 -12 25 -33 59 -45 75 -12 17
-27 41 -32 55 -6 14 -20 39 -31 55 -11 17 -24 41 -30 54 -6 13 -19 35 -29 50
-10 14 -31 49 -45 76 -15 28 -31 57 -36 65 -33 54 -101 171 -119 205 -12 22
-31 56 -42 75 -12 19 -32 55 -46 80 -13 25 -28 52 -33 60 -41 66 -100 169
-100 173 0 3 -13 25 -28 49 -15 24 -37 61 -47 83 -11 22 -23 41 -27 43 -4 2
-19 27 -33 55 -14 29 -35 66 -45 82 -11 17 -23 37 -27 45 -8 18 -89 158 -103
180 -6 8 -13 22 -17 30 -3 8 -25 47 -48 85 -24 39 -52 88 -64 110 -12 22 -26
47 -31 55 -20 32 -100 172 -100 176 0 2 -12 23 -27 47 -15 23 -37 60 -48 82
-11 22 -32 59 -48 82 -15 24 -27 45 -27 47 0 4 -80 145 -100 176 -5 8 -24 41
-41 74 -43 82 -82 116 -135 116 -36 0 -47 -5 -74 -36 -17 -20 -36 -46 -41 -58
-5 -11 -25 -46 -44 -76 -18 -30 -44 -75 -56 -100 -13 -25 -28 -52 -35 -60 -6
-8 -26 -42 -44 -75 -18 -33 -39 -67 -46 -76 -8 -8 -14 -19 -14 -23 0 -4 -9
-21 -21 -37 -34 -48 -61 -39 -118 39 -28 37 -55 72 -60 78 -5 6 -29 40 -53 75
-66 96 -92 133 -99 139 -3 3 -26 34 -51 70 -44 64 -564 792 -600 840 -52 70
-168 231 -191 265 -34 52 -153 216 -170 235 -7 8 -23 31 -35 51 -12 19 -29 43
-39 52 -22 19 -90 30 -118 18z"/>
</g>
</svg>
