<?xml version="1.0" standalone="no"?>
<!DOCTYPE svg PUBLIC "-//W3C//DTD SVG 20010904//EN"
 "http://www.w3.org/TR/2001/REC-SVG-20010904/DTD/svg10.dtd">
<svg version="1.0" xmlns="http://www.w3.org/2000/svg"
 width="856.000000pt" height="856.000000pt" viewBox="0 0 856.000000 856.000000"
 preserveAspectRatio="xMidYMid meet">
<metadata>
Created by potrace 1.14, written by Peter Selinger 2001-2017
</metadata>
<g transform="translate(0.000000,856.000000) scale(0.100000,-0.100000)"
fill="#000000" stroke="none">
<path d="M2286 6843 c-3 -3 -30 -5 -60 -5 -39 0 -59 -5 -69 -17 -8 -9 -33 -77
-56 -151 -24 -74 -51 -160 -61 -190 -32 -98 -82 -255 -84 -265 -1 -5 -19 -64
-40 -130 -21 -66 -39 -124 -41 -130 -1 -5 -5 -17 -8 -25 -3 -8 -31 -95 -62
-193 -53 -166 -68 -198 -82 -183 -5 5 -77 279 -87 331 -2 11 -9 40 -16 65 -7
25 -14 53 -16 62 -2 10 -6 26 -8 36 -3 9 -18 76 -35 147 -17 72 -34 141 -38
155 -10 39 -11 43 -17 70 -3 14 -10 43 -15 65 -18 70 -23 123 -12 129 6 4 32
9 58 11 92 9 102 14 108 49 4 17 5 61 3 96 l-3 65 -327 0 c-246 0 -330 -3
-339 -12 -7 -7 -12 -37 -12 -70 1 -97 13 -121 58 -124 11 0 36 -2 56 -3 51 -2
66 -19 89 -100 11 -39 24 -84 30 -101 5 -16 11 -41 14 -55 3 -14 15 -61 27
-105 11 -44 22 -87 24 -95 2 -8 15 -58 29 -110 15 -52 28 -102 30 -110 2 -8
12 -44 21 -80 9 -36 18 -69 19 -75 1 -5 5 -16 9 -22 5 -7 6 -13 3 -13 -3 0 -1
-11 4 -25 5 -14 12 -36 14 -48 3 -12 19 -74 36 -137 17 -63 33 -124 35 -135 3
-11 11 -42 19 -69 8 -27 13 -53 10 -58 -3 -4 -1 -8 4 -8 5 0 9 -6 9 -12 0 -17
42 -175 55 -210 l10 -28 127 0 c137 0 171 5 171 26 0 7 5 25 12 41 6 15 12 30
12 33 1 3 9 25 18 50 21 57 208 634 208 643 0 3 5 18 12 34 6 15 12 33 13 38
10 42 118 352 126 359 6 6 13 6 19 0 9 -9 57 -137 64 -169 4 -19 78 -250 86
-270 5 -11 12 -31 15 -45 4 -14 41 -131 82 -260 41 -129 79 -251 85 -270 6
-19 14 -42 18 -50 4 -8 13 -39 20 -68 23 -86 37 -94 177 -92 65 1 125 2 135 2
20 -1 31 26 62 153 14 55 29 115 35 133 5 17 8 32 5 32 -3 0 0 8 5 18 5 9 11
31 14 47 6 31 87 334 112 420 8 28 17 60 20 73 2 13 7 32 10 42 3 10 7 27 9
37 2 10 11 43 20 74 9 31 19 66 21 78 3 11 7 29 10 39 2 9 22 85 43 167 61
233 71 263 92 270 18 6 30 8 97 21 18 3 38 13 45 21 13 17 17 157 4 170 -8 8
-616 13 -648 5 -15 -4 -18 -17 -18 -87 0 -103 9 -114 101 -118 36 -2 70 -7 77
-10 14 -10 8 -71 -19 -177 -11 -47 -22 -92 -24 -100 -4 -19 -25 -102 -29 -115
-1 -5 -6 -28 -11 -50 -4 -22 -10 -44 -13 -50 -3 -5 -7 -18 -8 -30 -1 -11 -12
-58 -24 -105 -12 -47 -24 -96 -27 -110 -14 -79 -77 -327 -86 -338 -18 -22 -33
5 -72 126 -21 64 -48 149 -60 187 -35 105 -128 399 -131 410 -1 6 -18 60 -38
120 -20 61 -36 118 -36 127 0 9 -4 19 -9 22 -5 3 -14 27 -20 53 -18 72 -71
216 -86 232 -7 7 -28 15 -47 17 -18 2 -38 6 -45 8 -6 3 -14 2 -17 -1z"/>
<path d="M3749 6843 c-20 -5 -27 -37 -24 -107 4 -97 14 -106 111 -110 32 -1
51 -8 60 -21 15 -20 16 -29 19 -136 1 -37 5 -74 8 -83 4 -9 2 -16 -3 -16 -6 0
-6 -10 0 -26 7 -17 7 -32 0 -45 -6 -10 -7 -19 -2 -19 5 0 6 -18 2 -40 -4 -22
-4 -40 0 -40 4 0 4 -16 0 -35 -4 -19 -5 -35 -1 -35 9 0 6 -104 -3 -119 -4 -6
-3 -11 1 -11 5 0 7 -15 5 -32 -2 -18 -3 -42 -3 -53 2 -123 1 -156 -4 -164 -3
-5 -1 -12 5 -16 6 -4 7 -11 4 -17 -9 -14 -8 -124 1 -138 3 -5 3 -10 -2 -10 -4
0 -8 -57 -8 -128 1 -70 -1 -136 -3 -147 -3 -16 -23 -27 -95 -50 l-92 -30 -2
-78 c-1 -54 3 -82 13 -91 15 -15 105 -19 439 -18 189 1 253 6 268 21 8 8 5
178 -3 173 -3 -2 -18 2 -35 8 -27 11 -49 17 -82 24 -7 1 -16 5 -19 9 -4 4 -16
7 -26 7 -21 0 -20 -7 -20 303 0 124 4 193 11 200 16 16 738 19 749 3 8 -12 13
-473 5 -493 -4 -11 -50 -28 -98 -38 -5 -2 -26 -9 -45 -17 l-35 -15 1 -89 0
-89 352 -1 c194 0 352 2 353 5 6 41 2 167 -6 176 -5 7 -47 22 -92 35 -59 16
-83 28 -84 39 -3 46 -4 1225 -1 1265 5 53 15 61 99 72 83 10 90 20 88 116 -2
46 -3 85 -4 88 -2 8 -690 5 -698 -4 -13 -13 -12 -160 2 -179 8 -11 30 -18 66
-21 30 -2 60 -4 67 -5 28 -2 35 -58 37 -299 1 -159 -2 -245 -9 -249 -18 -12
-737 -6 -748 5 -11 11 -19 449 -10 499 3 18 16 26 55 38 28 8 61 15 74 15 44
0 63 33 62 109 -1 37 -5 74 -9 81 -5 8 -47 13 -126 16 -66 2 -145 4 -176 5
-32 2 -60 0 -63 -3 -3 -2 -24 -2 -48 1 -23 4 -55 4 -72 1 -16 -3 -48 -3 -71 0
-22 4 -49 3 -60 0 -10 -4 -28 -4 -39 0 -11 3 -27 5 -36 3z"/>
<path d="M5886 6843 c-2 -2 -42 -5 -89 -6 -54 -2 -91 -7 -99 -15 -14 -14 -17
-108 -5 -154 8 -30 19 -34 102 -42 55 -6 66 -16 121 -115 38 -69 62 -111 103
-179 17 -29 31 -55 31 -57 0 -2 27 -49 60 -105 33 -56 60 -103 60 -105 0 -2
31 -58 69 -123 38 -65 89 -158 114 -207 l44 -87 -2 -182 c-2 -99 -3 -184 -4
-187 -1 -5 -82 -32 -101 -34 -3 0 -9 -3 -15 -6 -5 -4 -23 -10 -40 -13 l-30 -6
0 -93 1 -92 354 0 354 0 1 78 c0 91 -7 117 -33 117 -10 0 -22 3 -26 8 -4 4
-11 7 -14 8 -30 2 -95 31 -102 43 -4 9 -7 106 -6 216 l2 200 164 285 c90 157
171 299 181 315 19 31 89 154 124 216 28 52 57 88 75 95 8 3 38 8 65 11 71 7
83 24 83 123 0 50 -4 83 -11 87 -7 4 -97 6 -202 5 -187 -3 -435 -9 -445 -11
-3 -1 -6 -40 -5 -87 1 -96 11 -113 69 -115 111 -4 118 -10 81 -86 -26 -52
-183 -329 -224 -393 -8 -14 -24 -41 -34 -60 -11 -19 -34 -56 -52 -83 l-33 -49
-25 38 c-13 22 -40 70 -60 108 -20 38 -42 75 -48 82 -6 7 -12 19 -13 26 -1 7
-6 20 -11 28 -5 8 -26 47 -46 85 -69 134 -121 230 -130 240 -16 17 -9 45 14
54 12 5 40 11 62 14 22 4 41 6 42 7 10 1 27 52 29 85 4 56 -4 92 -24 100 -16
7 -107 17 -142 16 -32 -1 -127 0 -173 1 -26 1 -49 -1 -52 -4 -3 -2 -27 -2 -55
2 -28 4 -52 5 -54 3z"/>
<path d="M3668 3505 c-2 -2 -31 -5 -64 -8 -174 -16 -379 -147 -493 -316 -50
-73 -122 -225 -137 -291 -28 -115 -39 -437 -20 -535 20 -100 31 -138 58 -204
37 -92 41 -99 104 -186 90 -124 165 -188 304 -256 84 -41 132 -49 290 -50 142
-1 250 10 298 31 23 10 42 17 42 15 0 -3 23 9 50 25 28 17 55 30 59 30 9 0
177 163 202 196 58 76 123 220 160 354 20 72 18 447 -3 535 -74 307 -278 550
-522 622 -49 15 -62 18 -121 29 -32 6 -202 13 -207 9z m187 -276 c104 -29 160
-66 230 -151 36 -44 89 -156 101 -213 2 -11 6 -31 9 -45 19 -93 25 -293 12
-407 -11 -89 -42 -203 -72 -263 -49 -97 -157 -193 -251 -224 -48 -16 -212 -24
-232 -12 -5 3 -24 8 -42 11 -155 27 -303 225 -326 435 -3 30 -7 66 -10 80 -5
35 -5 266 1 320 3 25 14 77 25 115 84 287 300 425 555 354z"/>
<path d="M6877 3504 c-1 -1 -28 -4 -59 -8 -32 -3 -66 -9 -75 -14 -160 -77
-176 -87 -221 -137 -57 -62 -89 -126 -106 -210 -16 -76 -12 -92 28 -101 48
-11 256 -7 271 6 7 6 18 30 24 54 14 57 74 117 132 133 13 4 55 8 92 9 57 2
76 -2 120 -25 32 -16 63 -43 82 -70 28 -40 30 -48 30 -140 0 -145 -23 -186
-215 -378 -178 -179 -191 -202 -193 -338 l-2 -90 153 -1 c98 0 156 4 160 10 3
6 7 35 9 65 3 79 33 128 151 249 130 133 162 169 162 182 0 5 4 10 8 10 20 0
77 130 90 205 8 51 8 191 -1 230 -11 47 -64 147 -99 186 -77 83 -194 148 -299
165 -38 6 -236 13 -242 8z"/>
<path d="M2099 3482 c-22 -3 -28 -9 -31 -34 -8 -53 1 -151 14 -164 7 -6 44
-15 82 -18 93 -9 119 -22 126 -66 11 -70 1 -963 -10 -974 -9 -8 -19 -2 -38 21
-21 25 -246 378 -297 465 -5 9 -93 148 -195 308 -197 309 -221 348 -245 395
-29 58 -36 60 -312 60 l-253 0 -2 -35 c-3 -81 2 -145 15 -157 7 -7 39 -14 71
-16 64 -4 85 -20 87 -66 7 -146 9 -241 8 -331 0 -8 1 -58 1 -110 1 -52 1 -99
0 -105 -2 -5 -1 -14 0 -20 1 -5 2 -62 1 -125 -1 -63 -2 -222 -3 -352 -1 -131
-2 -238 -3 -238 0 -1 -38 -13 -85 -29 l-85 -28 -3 -95 -3 -94 353 0 353 1 0
90 c0 50 -3 91 -7 93 -4 2 -49 14 -100 28 -50 14 -97 29 -104 35 -9 7 -11 115
-7 462 2 249 5 468 7 487 6 66 5 63 19 48 17 -16 247 -363 266 -400 8 -16 18
-28 23 -28 4 0 8 -5 8 -10 0 -6 5 -16 10 -23 6 -7 81 -122 167 -257 87 -135
160 -247 163 -250 8 -8 29 -43 39 -65 5 -12 16 -27 25 -34 9 -7 16 -18 16 -23
0 -5 18 -36 40 -68 22 -32 40 -64 40 -70 0 -16 37 -27 84 -24 22 2 85 4 139 5
53 1 100 5 102 9 3 5 8 266 11 582 5 487 8 712 13 944 1 46 10 51 94 60 49 5
76 20 86 47 8 22 7 144 -1 153 -12 11 -599 25 -679 16z"/>
<path d="M4713 3472 c-42 -4 -45 -14 -45 -189 -1 -196 1 -236 11 -252 11 -18
148 -24 203 -10 42 11 47 21 53 114 2 37 8 72 14 78 9 9 108 12 289 8 l62 -1
0 -655 c0 -575 -2 -655 -15 -656 -18 -2 -25 -4 -45 -12 -8 -3 -40 -13 -71 -22
l-55 -15 0 -93 1 -92 353 -1 352 0 0 92 0 93 -92 29 -93 28 0 650 0 649 183 3
c101 1 181 -1 179 -6 -5 -6 12 -116 22 -147 21 -63 -6 -58 229 -46 10 1 13 24
12 94 0 50 0 150 0 222 -1 71 -3 131 -6 134 -6 6 -1488 9 -1541 3z"/>
<path d="M6886 1963 c-3 -3 -26 -7 -51 -8 -25 -1 -51 -7 -58 -14 -6 -6 -13
-38 -14 -69 -8 -212 -14 -205 163 -202 76 1 147 2 157 1 19 0 19 -2 21 157 1
120 -3 127 -80 131 -26 1 -51 4 -55 7 -4 2 -10 0 -13 -5 -4 -6 -18 -6 -35 -1
-16 4 -32 6 -35 3z"/>
</g>
</svg>
