<?xml version="1.0" standalone="no"?>
<!DOCTYPE svg PUBLIC "-//W3C//DTD SVG 20010904//EN"
 "http://www.w3.org/TR/2001/REC-SVG-20010904/DTD/svg10.dtd">
<svg version="1.0" xmlns="http://www.w3.org/2000/svg"
 width="1280.000000pt" height="1280.000000pt" viewBox="0 0 1280.000000 1280.000000"
 preserveAspectRatio="xMidYMid meet">
<metadata>
Created by potrace 1.14, written by Peter Selinger 2001-2017
</metadata>
<g transform="translate(0.000000,1280.000000) scale(0.100000,-0.100000)"
fill="#000000" stroke="none">
<path d="M1747 9733 c-1 -1 -301 -3 -665 -4 -402 -2 -666 -7 -669 -13 -3 -5
-7 -104 -9 -220 -1 -116 -3 -213 -5 -216 -1 -3 0 -9 1 -15 6 -29 5 -65 -2 -65
-5 0 -5 -7 0 -16 5 -8 6 -35 2 -59 -4 -24 -3 -50 1 -57 4 -6 4 -19 -1 -29 -5
-9 -7 -19 -4 -22 7 -7 11 -97 4 -97 -7 0 -4 -79 3 -86 3 -3 2 -16 -3 -29 -5
-13 -6 -26 -3 -29 10 -9 9 -146 0 -146 -5 0 -5 -5 -1 -12 4 -7 9 -102 10 -213
1 -110 2 -205 3 -211 0 -6 20 -11 44 -11 23 0 107 -3 187 -7 80 -4 189 -9 242
-11 53 -1 100 -5 105 -7 4 -2 24 -4 43 -4 l35 1 1 295 c2 403 10 496 52 577
25 50 66 62 272 79 84 7 494 6 825 -1 182 -4 371 -8 420 -9 l90 -2 3 -2642 2
-2642 -72 -1 c-176 -2 -454 -21 -517 -34 -12 -3 -31 -7 -42 -10 -12 -2 -33
-12 -47 -21 -91 -59 -105 -106 -107 -354 -1 -107 0 -200 2 -206 3 -8 61 -12
181 -13 97 -1 312 -4 477 -6 165 -3 566 -7 890 -10 325 -3 643 -7 708 -8 l117
-2 1 70 c4 308 -16 452 -69 505 -26 25 -65 37 -182 55 -19 3 -111 8 -205 10
-199 5 -267 12 -326 30 -17 6 -19 15 -17 71 2 35 0 64 -3 64 -4 0 -3 15 1 34
4 18 3 40 -1 49 -6 9 -5 18 0 21 6 4 6 18 1 36 -5 17 -6 30 -2 30 8 0 6 86 -3
99 -3 5 -1 12 4 16 7 3 7 15 1 30 -6 15 -6 27 0 30 6 4 7 13 1 24 -6 10 -6 23
-1 31 5 8 5 21 0 30 -5 9 -5 22 0 30 5 8 5 21 0 30 -4 8 -4 22 0 31 5 8 5 21
0 29 -4 7 -4 24 0 36 6 14 5 26 0 29 -5 3 -5 18 0 35 5 17 6 30 2 30 -4 0 -7
14 -7 30 0 17 4 30 8 30 5 0 5 5 2 10 -9 15 -10 153 -1 168 4 7 4 12 -1 12 -4
0 -8 20 -8 45 0 25 4 45 8 45 5 0 5 5 1 11 -10 17 -11 60 -2 87 4 12 3 22 -2
22 -5 0 -5 12 0 30 5 17 6 30 2 30 -4 0 -6 42 -5 92 2 51 3 98 3 103 -5 210
-4 3742 1 3745 9 7 1263 3 1394 -4 172 -9 234 -29 237 -75 2 -29 5 -53 8 -61
1 -3 3 -21 5 -40 1 -19 5 -66 9 -105 10 -104 15 -163 21 -227 10 -117 15 -174
20 -218 2 -25 7 -76 11 -115 3 -38 7 -72 9 -73 2 -2 36 -6 77 -8 40 -2 98 -6
128 -8 83 -6 310 -7 354 -2 22 3 43 9 48 14 5 5 11 55 13 113 2 57 5 104 5
104 3 0 9 347 10 655 3 477 1 623 -8 637 -18 28 -219 37 -1107 49 -411 5
-3004 12 -3008 7z"/>
<path d="M8087 9733 c-1 -1 -287 -3 -635 -5 -369 -1 -636 -7 -639 -12 -4 -5
-7 -115 -9 -244 -1 -129 -3 -255 -4 -281 -1 -25 -1 -50 0 -56 1 -5 1 -30 1
-55 -2 -70 5 -863 8 -885 0 -6 29 -12 64 -13 34 -1 103 -3 152 -6 50 -3 151
-8 225 -11 74 -4 153 -8 175 -9 l40 -2 2 300 c3 327 10 458 28 516 23 77 50
105 113 116 12 2 34 6 50 9 92 17 433 21 912 10 179 -4 377 -8 440 -9 l115 -2
3 -2642 2 -2642 -72 -1 c-123 -1 -209 -7 -215 -13 -3 -3 -13 -1 -23 4 -10 5
-20 7 -24 3 -3 -3 -38 -7 -78 -9 -103 -4 -183 -17 -233 -36 -117 -45 -143
-121 -141 -406 l1 -177 35 -1 c208 -7 2223 -28 2316 -25 25 1 35 35 23 69 -5
12 -5 22 -1 22 8 0 6 169 -2 177 -3 3 -1 14 5 24 5 11 6 19 1 19 -5 0 -8 12
-8 28 0 38 -15 145 -22 157 -4 6 -7 12 -8 15 -17 91 -97 115 -414 125 -209 7
-276 13 -330 30 -17 5 -19 16 -19 90 0 47 -2 88 -5 93 -2 4 -1 14 3 20 4 7 5
33 1 57 -4 25 -5 47 -2 50 3 3 4 46 3 97 -2 51 -2 100 -2 108 1 29 0 115 -2
173 -1 31 1 57 5 57 4 0 5 6 2 14 -9 22 -10 156 -2 156 4 0 5 6 2 14 -9 23
-10 106 -1 106 5 0 5 5 1 11 -3 6 -6 43 -5 82 1 78 1 84 1 152 0 25 0 51 1 58
0 6 -2 36 -3 65 -2 30 0 56 4 58 5 3 5 10 1 17 -9 15 -10 147 0 147 5 0 5 6 0
13 -10 16 -11 127 -1 148 4 9 4 20 0 23 -9 10 -11 3460 -1 3466 9 6 1262 3
1394 -4 105 -5 139 -10 192 -27 40 -13 48 -36 58 -159 3 -36 8 -81 10 -100 3
-19 7 -69 10 -110 3 -41 8 -95 10 -120 3 -25 7 -72 10 -105 3 -33 7 -80 10
-105 2 -25 7 -76 10 -114 2 -38 6 -71 8 -73 2 -1 35 -5 73 -8 38 -3 89 -7 114
-10 25 -3 111 -7 192 -9 148 -4 224 5 225 27 1 7 4 46 8 87 28 313 40 1410 16
1425 -19 11 -249 26 -458 29 -73 1 -135 5 -138 8 -3 3 -21 2 -40 -2 -19 -4
-36 -5 -39 -3 -9 9 -766 14 -2174 16 -728 1 -1324 1 -1325 0z"/>
</g>
</svg>
