<?xml version="1.0" standalone="no"?>
<!DOCTYPE svg PUBLIC "-//W3C//DTD SVG 20010904//EN"
 "http://www.w3.org/TR/2001/REC-SVG-20010904/DTD/svg10.dtd">
<svg version="1.0" xmlns="http://www.w3.org/2000/svg"
 width="700.000000pt" height="700.000000pt" viewBox="0 0 700.000000 700.000000"
 preserveAspectRatio="xMidYMid meet">
<metadata>
Created by potrace 1.14, written by Peter Selinger 2001-2017
</metadata>
<g transform="translate(0.000000,700.000000) scale(0.100000,-0.100000)"
fill="#000000" stroke="none">
<path d="M3554 5222 c-6 -4 -74 -97 -151 -207 -148 -212 -459 -659 -528 -760
-23 -33 -119 -170 -213 -305 -94 -135 -202 -291 -242 -347 -58 -84 -74 -101
-89 -95 -10 4 -63 63 -116 132 -139 178 -143 182 -185 178 -34 -3 -40 -11
-317 -428 -156 -234 -288 -432 -293 -440 -6 -8 -110 -166 -232 -350 -122 -184
-280 -422 -350 -529 -71 -106 -131 -205 -134 -220 -4 -18 1 -35 16 -54 l21
-27 2759 0 2759 0 20 26 c12 15 21 34 21 43 0 10 -29 68 -65 130 -36 63 -65
115 -65 117 0 2 -16 28 -35 58 -19 30 -35 57 -35 59 0 2 -38 70 -85 151 -47
81 -85 152 -85 157 0 5 -4 9 -10 9 -5 0 -10 4 -10 9 0 7 -296 531 -340 601 -5
8 -91 158 -192 334 -101 175 -194 337 -207 360 -13 22 -80 140 -149 261 -135
236 -146 253 -177 265 -49 18 -69 -4 -176 -191 -73 -127 -108 -179 -120 -179
-11 0 -39 28 -68 68 -28 37 -54 72 -59 77 -4 6 -49 69 -100 140 -50 72 -126
177 -168 235 -42 58 -87 121 -99 140 -13 19 -70 99 -127 177 -57 79 -143 200
-193 269 -49 69 -98 130 -107 135 -20 11 -59 12 -74 1z"/>
</g>
</svg>
