<?xml version="1.0" standalone="no"?>
<!DOCTYPE svg PUBLIC "-//W3C//DTD SVG 20010904//EN"
 "http://www.w3.org/TR/2001/REC-SVG-20010904/DTD/svg10.dtd">
<svg version="1.0" xmlns="http://www.w3.org/2000/svg"
 width="1400.000000pt" height="1400.000000pt" viewBox="0 0 1400.000000 1400.000000"
 preserveAspectRatio="xMidYMid meet">
<metadata>
Created by potrace 1.14, written by Peter Selinger 2001-2017
</metadata>
<g transform="translate(0.000000,1400.000000) scale(0.100000,-0.100000)"
fill="#000000" stroke="none">
<path d="M1479 9965 c-3 -2 -173 -6 -379 -8 -372 -5 -414 -7 -433 -26 -13 -13
-17 -174 -20 -818 -1 -301 -6 -543 -11 -543 -5 0 -4 -6 1 -12 10 -15 10 -409
-1 -426 -4 -7 -4 -12 1 -12 10 0 9 -93 -1 -109 -4 -6 -4 -11 1 -11 10 0 9
-133 -1 -149 -4 -6 -3 -11 2 -11 8 0 7 -73 -2 -97 -3 -6 -2 -14 1 -17 8 -7 10
-86 2 -86 -3 0 -2 -25 1 -55 3 -30 2 -55 -3 -55 -4 0 -5 -4 -2 -10 8 -13 11
-108 3 -115 -3 -4 -3 -19 2 -33 4 -15 4 -37 -1 -49 -4 -12 -4 -25 0 -28 5 -3
6 -20 2 -37 -4 -18 -4 -46 -1 -63 3 -16 3 -42 -1 -57 -4 -15 -3 -30 2 -34 5
-3 7 -10 3 -15 -3 -6 -5 -34 -4 -62 2 -65 2 -59 -1 -145 -1 -40 0 -75 3 -78 3
-3 3 -17 -1 -32 -4 -15 -5 -41 -1 -57 4 -17 4 -39 0 -50 -4 -10 -3 -36 0 -57
4 -21 4 -40 0 -43 -4 -2 -4 -24 0 -47 3 -24 3 -58 -1 -75 -3 -18 -4 -33 0 -33
5 0 6 -29 2 -150 -1 -14 -1 -32 -1 -40 1 -17 1 -76 0 -105 -1 -25 -1 -27 2
-103 2 -34 0 -62 -3 -62 -4 0 -3 -15 1 -34 4 -19 4 -39 0 -46 -4 -7 -4 -26 0
-44 3 -17 3 -43 -1 -58 -4 -16 -3 -30 2 -34 5 -3 7 -9 4 -13 -4 -7 -6 -91 -4
-151 0 -8 0 -37 0 -65 0 -27 0 -57 0 -65 0 -8 0 -31 -1 -50 0 -19 1 -52 2 -73
2 -21 0 -41 -4 -44 -5 -2 -5 -9 -1 -16 9 -15 10 -97 0 -97 -5 0 -5 -5 -1 -12
10 -17 11 -218 1 -218 -5 0 -5 -5 -1 -12 4 -6 8 -169 10 -362 4 -493 12 -658
34 -680 15 -15 316 -19 1380 -19 1064 0 1289 5 1485 29 77 9 206 32 244 43 19
6 38 8 42 5 5 -3 9 0 9 5 0 6 3 10 8 9 13 -3 93 23 211 68 146 56 194 78 255
117 27 17 56 32 64 33 72 11 422 372 511 527 10 18 35 61 55 95 20 35 36 70
36 77 0 8 4 16 9 19 11 7 75 183 96 266 19 74 22 89 31 145 3 22 9 58 13 80 4
23 7 51 6 63 -1 12 1 22 4 22 8 0 6 311 -3 380 -7 61 -43 237 -53 260 -7 17
-11 28 -16 50 -2 8 -9 26 -14 40 -6 14 -21 50 -33 80 -23 58 -47 106 -67 130
-6 8 -11 17 -11 20 2 8 -54 95 -63 98 -5 2 -9 8 -9 14 0 30 -202 243 -305 320
-38 29 -72 55 -75 58 -13 13 -91 60 -100 60 -5 0 -10 4 -10 9 0 5 -8 11 -17
14 -55 19 -298 154 -301 168 -2 11 28 36 95 79 135 85 207 142 282 219 115
119 211 265 275 418 28 67 74 218 82 272 3 18 8 43 10 55 23 113 22 396 -2
508 -3 13 -9 48 -15 78 -18 93 -77 260 -129 365 -65 130 -158 254 -295 391
-92 92 -123 117 -190 149 -44 22 -93 48 -108 58 -15 10 -33 20 -40 21 -7 1
-32 11 -57 23 -25 11 -67 28 -95 38 -27 10 -56 23 -62 28 -7 5 -13 6 -13 2 0
-4 -6 -2 -13 4 -8 6 -22 12 -33 14 -10 1 -23 5 -29 9 -15 9 -109 27 -180 34
-22 2 -109 6 -194 9 -85 2 -156 7 -159 9 -2 3 -12 1 -22 -4 -10 -5 -20 -6 -24
-3 -6 7 -242 10 -1098 17 -301 2 -551 7 -556 10 -5 3 -11 4 -13 1z m1106 -659
c664 -8 835 -16 877 -42 4 -3 18 -7 30 -9 40 -8 221 -103 280 -148 110 -83
248 -231 248 -266 0 -6 4 -11 10 -11 5 0 12 -11 16 -25 3 -14 10 -25 15 -25 5
0 9 -4 9 -9 0 -5 8 -26 17 -47 9 -22 16 -42 15 -46 -1 -5 2 -8 6 -8 4 0 8 -8
9 -17 1 -10 8 -54 16 -98 23 -127 19 -358 -7 -505 -39 -215 -258 -464 -521
-593 -119 -59 -233 -95 -355 -112 -58 -9 -294 -18 -492 -19 -104 -1 -188 -5
-188 -9 0 -4 -8 -4 -17 1 -10 5 -27 6 -38 2 -11 -4 -34 -4 -52 1 -18 4 -33 4
-33 0 0 -3 -21 -5 -47 -3 -66 3 -63 3 -111 -1 -23 -2 -45 0 -48 4 -2 4 -18 4
-35 -1 -19 -6 -38 -6 -49 0 -10 5 -20 7 -23 4 -3 -3 -32 -5 -64 -5 -290 5
-493 11 -573 17 -52 3 -103 6 -112 6 -24 -1 -38 27 -43 85 -28 305 -23 1708 7
1855 2 7 7 16 12 20 5 3 93 7 195 8 102 0 186 2 187 3 3 2 118 1 859 -7z m580
-2640 c215 -5 295 -10 355 -22 65 -13 78 -16 115 -26 49 -14 46 -13 70 -22 11
-4 34 -13 50 -18 46 -16 200 -92 203 -100 2 -5 9 -8 16 -8 7 0 29 -12 49 -27
19 -16 48 -37 63 -48 179 -126 327 -352 360 -550 2 -11 7 -40 11 -65 14 -83 5
-372 -12 -399 -2 -4 -7 -21 -9 -38 -28 -159 -140 -368 -244 -458 -20 -16 -44
-38 -54 -47 -10 -10 -22 -18 -27 -18 -5 0 -11 -3 -13 -8 -11 -25 -214 -162
-240 -162 -10 0 -50 -15 -90 -34 -40 -19 -94 -41 -119 -49 -42 -14 -193 -45
-229 -46 -8 0 -33 -3 -55 -5 -115 -14 -439 -20 -1060 -19 -912 0 -974 4 -976
62 -1 14 -3 40 -4 56 -25 211 -24 1617 1 1940 3 44 6 85 7 92 1 16 24 19 172
22 72 1 131 4 132 5 4 4 1307 -2 1528 -8z"/>
<path d="M5938 9955 c-2 -2 -25 -5 -52 -8 -27 -4 -53 -12 -58 -19 -10 -17 -3
-64 21 -136 11 -31 36 -111 56 -177 20 -66 48 -156 62 -200 13 -44 26 -87 28
-95 2 -8 16 -53 30 -100 29 -94 48 -154 65 -215 6 -22 14 -47 17 -55 3 -8 7
-19 8 -25 0 -5 4 -17 7 -25 6 -13 105 -338 112 -365 1 -5 13 -43 25 -84 13
-41 24 -81 26 -90 2 -9 20 -68 40 -131 21 -63 39 -124 42 -135 3 -11 7 -27 10
-35 3 -8 7 -19 8 -25 2 -5 17 -57 35 -115 17 -58 38 -125 45 -150 7 -25 43
-144 80 -265 36 -121 80 -265 96 -320 17 -55 37 -119 44 -142 8 -23 16 -52 19
-65 2 -13 11 -42 20 -65 8 -24 13 -43 9 -43 -3 0 -1 -6 5 -13 6 -7 13 -24 15
-37 2 -14 9 -38 15 -53 7 -16 12 -32 12 -36 0 -5 9 -37 21 -72 11 -35 23 -73
25 -84 3 -11 7 -27 9 -35 2 -8 4 -15 5 -15 1 0 3 -7 5 -15 1 -8 13 -45 25 -83
12 -37 23 -73 24 -80 1 -6 5 -18 9 -24 5 -7 6 -13 3 -13 -3 0 2 -16 10 -35 8
-19 14 -36 13 -37 -1 -2 11 -43 27 -93 15 -49 28 -94 29 -100 0 -5 8 -32 17
-60 21 -65 68 -219 73 -242 2 -10 13 -48 24 -85 33 -108 58 -189 74 -241 8
-26 16 -51 16 -55 1 -4 14 -50 30 -102 40 -129 74 -243 77 -255 1 -6 18 -63
38 -128 20 -64 52 -170 72 -234 19 -65 39 -130 44 -145 5 -16 6 -28 3 -28 -3
0 -1 -6 4 -12 6 -7 14 -26 18 -43 11 -39 7 -27 60 -200 26 -82 60 -192 75
-243 16 -52 31 -97 35 -100 10 -10 405 -19 421 -10 5 3 20 4 34 3 54 -5 69 19
185 295 31 74 60 144 65 155 5 11 11 27 12 35 2 8 5 17 8 20 3 3 20 43 39 90
19 47 40 99 47 115 7 17 43 104 79 195 37 91 72 176 78 190 5 14 11 30 13 35
3 12 47 118 84 200 13 30 74 179 76 185 0 3 5 16 11 30 6 14 34 84 63 155 29
72 61 149 71 172 11 23 19 45 19 48 0 3 9 27 21 53 28 64 33 77 64 157 14 39
33 84 40 100 8 17 28 66 45 110 17 44 35 89 40 100 5 11 19 45 31 75 11 30 26
66 32 80 5 14 11 30 13 35 1 6 18 47 37 92 20 44 33 84 30 87 -4 3 -1 6 5 6 7
0 12 11 12 25 0 14 5 25 10 25 6 0 10 5 10 10 0 16 75 205 126 317 8 17 14 36
14 43 0 7 7 24 15 38 8 15 26 56 41 92 60 148 130 294 149 310 13 11 17 8 53
-34 6 -8 12 -18 12 -20 0 -3 24 -56 54 -118 30 -62 61 -129 69 -148 8 -19 27
-62 42 -95 15 -33 33 -73 40 -90 7 -16 19 -46 28 -65 8 -19 32 -75 52 -125 20
-49 43 -103 50 -120 44 -100 55 -125 55 -131 0 -3 7 -20 15 -37 8 -18 39 -93
69 -167 55 -138 161 -393 192 -465 10 -22 18 -42 19 -45 0 -3 8 -21 17 -40 9
-19 53 -123 98 -230 45 -107 88 -208 95 -225 28 -63 217 -510 219 -520 2 -5
11 -28 21 -50 9 -22 46 -110 82 -195 80 -194 82 -199 100 -232 7 -15 14 -31
14 -35 0 -5 6 -21 14 -38 7 -16 34 -79 60 -140 26 -60 66 -151 90 -201 56
-119 53 -118 325 -118 190 -1 207 1 231 19 25 19 63 121 136 370 8 28 17 57
21 65 8 22 8 22 16 63 5 20 11 37 15 37 4 0 7 10 8 22 1 12 6 33 12 47 5 14
22 67 36 116 15 50 39 131 55 180 16 50 40 131 55 180 15 50 29 99 33 110 3
11 7 22 7 25 1 3 4 12 8 20 3 8 15 49 27 90 12 41 30 102 40 135 11 33 30 98
44 145 29 99 108 362 161 535 21 66 38 125 40 130 1 6 5 17 8 25 5 15 74 240
82 270 2 8 18 60 34 115 17 55 51 170 76 255 26 85 50 164 55 175 10 23 30 97
28 105 -1 3 4 14 10 26 6 11 13 32 16 45 2 13 11 43 20 67 8 23 15 45 15 47 1
10 44 150 50 160 3 6 7 18 8 27 2 10 19 71 39 135 20 65 37 123 38 128 2 6 6
17 9 25 7 17 67 216 72 240 2 8 4 15 5 15 2 0 5 14 14 53 3 12 8 27 11 32 3 5
8 18 10 27 6 31 96 327 105 348 6 11 14 38 19 60 6 22 26 94 46 160 20 66 38
125 39 130 2 6 6 17 9 25 3 8 17 53 31 100 14 47 44 146 67 220 22 74 45 149
49 165 5 17 18 62 30 100 12 39 23 76 26 83 2 7 4 14 4 17 1 3 23 70 51 150
63 185 69 225 39 253 -28 26 -69 30 -319 29 -198 0 -294 -9 -317 -28 -14 -12
-88 -223 -129 -369 -1 -3 -5 -12 -8 -20 -4 -8 -15 -46 -26 -85 -11 -38 -29
-101 -41 -140 -11 -38 -23 -79 -25 -90 -3 -11 -16 -56 -30 -100 -41 -133 -79
-259 -81 -271 -1 -6 -14 -51 -29 -100 -16 -49 -29 -96 -31 -104 -1 -8 -17 -62
-34 -120 -18 -58 -33 -109 -35 -115 -1 -5 -5 -17 -8 -25 -3 -8 -24 -80 -47
-160 -23 -80 -49 -165 -57 -190 -8 -25 -16 -49 -17 -55 -2 -5 -8 -30 -15 -55
-29 -101 -43 -146 -48 -160 -3 -8 -8 -23 -10 -33 -1 -10 -12 -46 -23 -80 -11
-34 -22 -71 -25 -82 -2 -11 -29 -103 -60 -205 -31 -102 -58 -194 -60 -205 -3
-11 -21 -72 -40 -135 -20 -63 -38 -124 -40 -135 -3 -11 -14 -49 -26 -85 -11
-36 -23 -72 -24 -80 -2 -8 -13 -44 -24 -80 -61 -202 -101 -340 -115 -395 -2
-5 -6 -17 -9 -25 -8 -20 -118 -406 -122 -428 -2 -9 -4 -17 -5 -17 -1 0 -3 -7
-5 -15 -1 -9 -10 -40 -19 -70 -24 -79 -127 -461 -130 -485 -2 -11 -14 -58 -26
-105 -12 -47 -24 -98 -27 -115 -3 -16 -11 -42 -19 -56 -7 -15 -10 -29 -7 -33
9 -9 -30 -7 -44 2 -22 14 -135 289 -160 387 -2 11 -9 31 -15 45 -17 40 -41
102 -42 110 -1 3 -7 19 -13 35 -7 17 -23 59 -36 95 -28 72 -107 274 -188 480
-29 74 -53 138 -52 142 2 3 -4 11 -12 18 -7 6 -11 18 -8 26 3 8 0 14 -6 14 -6
0 -11 6 -11 13 0 6 -52 143 -116 302 -64 160 -117 295 -118 300 -1 6 -7 20
-14 32 -7 12 -12 27 -12 32 0 6 -9 30 -19 54 -11 23 -58 139 -104 257 -46 118
-88 224 -92 235 -5 11 -9 22 -10 25 -1 3 -6 16 -12 30 -6 14 -28 68 -48 120
-20 52 -43 109 -50 125 -7 17 -37 89 -65 160 -28 72 -58 144 -65 160 -7 17
-18 46 -26 65 -7 19 -23 58 -35 85 -12 28 -32 75 -44 105 -12 30 -32 78 -46
108 -13 29 -24 56 -24 61 0 8 -15 17 -50 29 -17 6 -503 9 -537 3 -13 -2 -23
-11 -23 -20 0 -9 -4 -21 -8 -27 -5 -5 -23 -47 -41 -94 -18 -47 -38 -98 -46
-115 -29 -64 -155 -391 -155 -403 0 -7 -4 -12 -10 -12 -5 0 -10 -7 -10 -15 0
-8 -31 -92 -69 -187 -74 -186 -83 -211 -81 -217 1 -2 -2 -7 -7 -10 -4 -3 -14
-24 -22 -46 -7 -22 -19 -53 -27 -70 -7 -16 -27 -66 -44 -110 -17 -44 -37 -93
-44 -110 -7 -16 -24 -57 -36 -90 -13 -33 -29 -73 -36 -90 -7 -16 -22 -55 -33
-85 -12 -30 -26 -64 -31 -75 -5 -11 -57 -141 -115 -290 -58 -148 -109 -279
-114 -290 -5 -11 -37 -92 -71 -180 -34 -88 -65 -169 -69 -180 -14 -35 -68
-176 -120 -315 -28 -74 -56 -148 -62 -165 -7 -16 -13 -34 -15 -40 -111 -368
-146 -455 -184 -455 -13 0 -39 41 -46 71 -3 13 -10 42 -15 64 -5 22 -11 49
-14 60 -6 27 -35 154 -41 185 -3 14 -16 68 -29 120 -13 52 -26 106 -29 120 -3
14 -17 68 -31 120 -15 52 -30 111 -35 130 -7 30 -17 66 -55 200 -2 8 -11 40
-20 70 -36 124 -45 157 -56 200 -7 25 -16 49 -20 55 -5 5 -9 19 -9 32 0 13 -4
31 -10 41 -8 16 -56 173 -65 217 -3 11 -9 31 -14 45 -11 27 -51 165 -56 190
-2 8 -4 16 -5 18 -2 1 -4 7 -5 12 -1 6 -3 11 -5 13 -1 1 -3 9 -5 17 -2 8 -29
103 -60 210 -31 107 -59 202 -61 210 -1 8 -12 44 -23 80 -40 134 -93 316 -96
330 -2 8 -10 35 -18 60 -14 39 -102 340 -112 380 -2 8 -18 62 -35 120 -17 58
-32 112 -35 120 -2 8 -8 30 -14 48 -5 18 -11 36 -12 40 -2 8 -3 11 -22 77 -9
28 -19 64 -23 80 -10 41 -11 45 -14 48 -1 1 -3 9 -5 17 -2 8 -26 92 -54 185
-29 94 -53 177 -55 185 -2 8 -6 22 -9 30 -3 8 -29 96 -57 195 -55 190 -65 226
-86 290 -17 51 -65 215 -69 235 -6 24 -40 113 -51 133 -6 10 -28 22 -50 27
-33 8 -498 12 -506 5z"/>
</g>
</svg>
