<?xml version="1.0" standalone="no"?>
<!DOCTYPE svg PUBLIC "-//W3C//DTD SVG 20010904//EN"
 "http://www.w3.org/TR/2001/REC-SVG-20010904/DTD/svg10.dtd">
<svg version="1.0" xmlns="http://www.w3.org/2000/svg"
 width="300.000000pt" height="358.000000pt" viewBox="0 0 300.000000 358.000000"
 preserveAspectRatio="xMidYMid meet">
<metadata>
Created by potrace 1.10, written by Peter Selinger 2001-2011
</metadata>
<g transform="translate(0.000000,358.000000) scale(0.050000,-0.050000)"
fill="#f2f3f4" stroke="none">
<path d="M2600 6966 c-1811 -321 -2731 -2258 -1660 -3496 238 -276 557 -499
1400 -980 781 -445 985 -603 1108 -855 194 -396 55 -779 -363 -1002 l-135 -72
93 0 c493 -3 968 562 905 1078 -60 489 -313 754 -1286 1343 -1015 615 -1276
850 -1531 1379 -211 438 -178 786 133 1407 253 507 759 912 1416 1134 292 99
260 124 -80 64z"/>
<path d="M3270 6169 c-708 -133 -1166 -840 -1000 -1545 94 -397 327 -635 1170
-1199 798 -533 1025 -738 1191 -1073 234 -473 185 -966 -139 -1420 -156 -218
-363 -398 -724 -626 -65 -41 47 -32 191 15 1105 363 1620 1387 1170 2329 -194
407 -454 658 -1272 1227 -893 621 -1115 933 -1018 1427 108 550 733 866 1277
646 189 -77 113 30 -86 121 -256 116 -496 147 -760 98z"/>
</g>
</svg>
