 <svg version="1.0" xmlns="http://www.w3.org/2000/svg"  width="161.000000pt" height="191.000000pt" viewBox="0 0 161.000000 191.000000"  preserveAspectRatio="xMidYMid meet">  <g transform="translate(0.000000,191.000000) scale(0.100000,-0.100000)" fill="#FFFFFF" stroke="#FFFFFF"> <path d="M710 1853 c-73 -13 -152 -39 -214 -69 -327 -164 -452 -548 -266 -813 68 -97 162 -168 395 -296 162 -90 212 -122 260 -172 102 -105 80 -257 -46 -320 l-44 -22 35 0 c56 -1 138 47 176 102 57 82 67 154 37 248 -26 82 -116 165 -283 263 -295 174 -375 241 -434 366 -29 60 -31 73 -31 170 1 92 4 113 29 174 16 38 41 88 57 111 66 98 206 197 332 237 33 10 63 21 66 23 5 6 -32 4 -69 -2z m-270 -143 c-13 -11 -20 -20 -17 -20 4 0 -1 -9 -10 -19 -9 -11 -21 -17 -26 -14 -6 3 -7 1 -4 -4 4 -6 0 -16 -8 -23 -8 -7 -15 -17 -15 -22 0 -6 -11 -23 -24 -39 -13 -16 -32 -60 -42 -99 -10 -38 -22 -70 -27 -70 -5 0 -6 -21 -3 -47 4 -27 7 -74 8 -105 1 -32 5 -58 8 -58 4 0 7 -6 7 -12 0 -14 35 -91 56 -122 25 -39 177 -176 177 -160 0 4 9 -3 19 -15 12 -14 25 -20 32 -15 7 4 9 3 6 -3 -3 -5 13 -19 36 -31 47 -25 69 -38 112 -68 32 -22 74 -40 88 -36 5 1 6 -2 3 -7 -4 -5 2 -12 11 -15 10 -3 29 -16 43 -29 14 -13 38 -32 53 -41 15 -10 24 -23 20 -29 -3 -5 -1 -7 4 -4 11 7 49 -41 45 -56 -1 -4 2 -7 7 -7 12 0 41 -88 40 -120 -2 -38 -29 -120 -40 -120 -6 0 -8 -4 -4 -9 3 -5 1 -12 -5 -16 -12 -7 -11 -8 -14 67 -1 31 -8 63 -14 71 -7 7 -9 17 -6 20 12 11 -50 92 -95 125 -68 49 -160 105 -216 132 -27 14 -52 28 -53 33 -2 4 -26 17 -53 28 -27 12 -49 26 -49 31 0 5 -4 6 -10 3 -5 -3 -10 -2 -10 2 0 5 -14 17 -31 27 -18 10 -40 26 -50 35 -10 9 -35 30 -57 46 -53 40 -136 163 -148 218 -22 97 -21 187 1 267 6 24 9 32 33 92 21 51 63 109 74 102 6 -4 8 -3 5 4 -9 13 2 44 13 37 5 -3 11 4 15 15 3 11 11 20 17 20 6 0 25 16 43 34 18 19 35 33 37 30 3 -2 11 2 18 11 7 9 15 13 18 10 3 -3 -5 -14 -18 -25z"/> <path d="M871 1639 c-70 -14 -127 -47 -180 -105 -61 -66 -85 -132 -85 -229 1 -124 69 -223 225 -326 30 -20 97 -64 149 -99 129 -85 195 -143 237 -205 106 -161 73 -355 -87 -498 -30 -27 -72 -58 -93 -69 -56 -28 -39 -32 34 -8 129 43 252 147 304 256 41 86 51 167 31 255 -35 156 -122 256 -369 422 -248 167 -307 257 -267 406 13 50 69 115 121 142 48 24 166 26 209 4 17 -9 30 -11 30 -6 0 16 -63 48 -118 60 -60 12 -78 12 -141 0z m-8 -37 c2 7 7 10 11 6 4 -3 -8 -17 -28 -30 -45 -31 -79 -74 -70 -89 4 -7 3 -9 -4 -5 -21 13 -31 -28 -32 -133 -1 -34 3 -68 8 -75 5 -6 8 -19 7 -28 -2 -10 2 -21 7 -25 7 -4 8 -1 4 8 -4 8 1 3 12 -11 11 -13 18 -28 16 -32 -3 -4 -1 -8 3 -8 5 0 30 -20 56 -44 25 -25 56 -47 67 -51 11 -3 20 -10 20 -15 0 -5 22 -21 50 -36 27 -15 47 -31 44 -35 -3 -5 1 -6 9 -3 7 2 25 -7 40 -21 15 -16 31 -24 38 -19 7 4 9 3 5 -4 -3 -6 7 -19 24 -28 16 -10 30 -22 30 -27 0 -4 4 -6 9 -3 5 3 11 -1 15 -9 3 -8 13 -15 21 -15 9 0 13 -4 10 -10 -3 -5 -1 -10 5 -10 6 0 8 -5 4 -12 -4 -6 -3 -8 3 -5 12 8 58 -40 68 -71 3 -12 11 -20 16 -17 5 4 9 -3 9 -14 0 -12 5 -21 10 -21 6 0 10 -9 10 -19 0 -11 4 -22 9 -25 4 -3 11 -25 14 -49 3 -23 9 -51 13 -62 5 -11 4 -16 -3 -12 -5 3 -10 0 -10 -8 0 -8 3 -15 7 -15 14 0 -12 -106 -41 -163 -27 -55 -110 -149 -136 -154 -16 -4 -6 23 24 63 27 36 52 102 62 167 8 48 -3 143 -19 162 -5 6 -10 27 -12 47 -1 23 -6 34 -14 31 -10 -4 -25 18 -28 39 -2 15 -156 144 -168 140 -4 -1 -8 2 -8 6 0 5 -35 30 -77 57 -43 27 -81 53 -84 58 -3 5 -10 9 -15 9 -15 1 -134 89 -134 99 0 6 -4 8 -9 4 -5 -3 -12 4 -16 15 -3 11 -10 20 -15 20 -5 0 -12 9 -15 20 -4 11 -11 18 -16 14 -5 -3 -9 -2 -8 3 1 4 -1 17 -5 28 -25 65 -28 80 -27 145 0 46 26 119 49 137 10 9 11 11 2 7 -12 -7 -13 -5 -3 8 7 8 10 18 6 21 -6 7 13 11 32 7 6 -1 7 1 3 5 -19 19 107 101 128 84 8 -7 14 -6 17 3z"/> </g> </svg> 